<mxfile host="app.diagrams.net" modified="2023-05-14T18:15:46.884Z" agent="Mozilla/5.0 (Windows NT 10.0; Win64; x64) AppleWebKit/537.36 (KHTML, like Gecko) Chrome/113.0.0.0 Safari/537.36" etag="VSty7fkNMdFbTHp9mFOu" version="21.3.0" type="google">
  <diagram id="mye7cpsdecRdVJIh1ltE" name="Page-1">
    <mxGraphModel dx="2261" dy="796" grid="1" gridSize="10" guides="1" tooltips="1" connect="1" arrows="1" fold="1" page="1" pageScale="1" pageWidth="827" pageHeight="1169" math="0" shadow="0">
      <root>
        <mxCell id="0" />
        <mxCell id="1" parent="0" />
        <mxCell id="GoWqnwifKlF_Yr-xNYbi-38" style="edgeStyle=none;rounded=0;orthogonalLoop=1;jettySize=auto;html=1;exitX=0;exitY=0.5;exitDx=0;exitDy=0;entryX=1;entryY=0.5;entryDx=0;entryDy=0;" parent="1" source="GoWqnwifKlF_Yr-xNYbi-1" target="GoWqnwifKlF_Yr-xNYbi-3" edge="1">
          <mxGeometry relative="1" as="geometry">
            <mxPoint x="270" y="380" as="targetPoint" />
          </mxGeometry>
        </mxCell>
        <mxCell id="qn3d2HcTWaKksIYHcs9O-18" style="edgeStyle=none;rounded=0;orthogonalLoop=1;jettySize=auto;html=1;exitX=1;exitY=0.5;exitDx=0;exitDy=0;" parent="1" source="GoWqnwifKlF_Yr-xNYbi-1" edge="1">
          <mxGeometry relative="1" as="geometry">
            <mxPoint x="530" y="380" as="targetPoint" />
          </mxGeometry>
        </mxCell>
        <mxCell id="GoWqnwifKlF_Yr-xNYbi-1" value="Яндекс Маршруты" style="rounded=1;whiteSpace=wrap;html=1;arcSize=22;" parent="1" vertex="1">
          <mxGeometry x="340" y="360" width="120" height="40" as="geometry" />
        </mxCell>
        <mxCell id="b2LkbIaox0D1EInB-J6t-35" style="edgeStyle=orthogonalEdgeStyle;rounded=0;orthogonalLoop=1;jettySize=auto;html=1;exitX=0;exitY=0.5;exitDx=0;exitDy=0;entryX=1;entryY=0.5;entryDx=0;entryDy=0;" parent="1" source="GoWqnwifKlF_Yr-xNYbi-3" target="6NfL-HVDj0801IJ6WpxN-40" edge="1">
          <mxGeometry relative="1" as="geometry" />
        </mxCell>
        <mxCell id="b2LkbIaox0D1EInB-J6t-36" style="edgeStyle=orthogonalEdgeStyle;rounded=0;orthogonalLoop=1;jettySize=auto;html=1;exitX=0;exitY=0.5;exitDx=0;exitDy=0;entryX=1;entryY=0.5;entryDx=0;entryDy=0;" parent="1" source="GoWqnwifKlF_Yr-xNYbi-3" target="GoWqnwifKlF_Yr-xNYbi-45" edge="1">
          <mxGeometry relative="1" as="geometry" />
        </mxCell>
        <mxCell id="b2LkbIaox0D1EInB-J6t-37" style="edgeStyle=orthogonalEdgeStyle;rounded=0;orthogonalLoop=1;jettySize=auto;html=1;exitX=0;exitY=0.5;exitDx=0;exitDy=0;entryX=1;entryY=0.5;entryDx=0;entryDy=0;" parent="1" source="GoWqnwifKlF_Yr-xNYbi-3" target="GoWqnwifKlF_Yr-xNYbi-43" edge="1">
          <mxGeometry relative="1" as="geometry" />
        </mxCell>
        <mxCell id="b2LkbIaox0D1EInB-J6t-38" style="edgeStyle=orthogonalEdgeStyle;rounded=0;orthogonalLoop=1;jettySize=auto;html=1;exitX=0;exitY=0.5;exitDx=0;exitDy=0;entryX=1;entryY=0.5;entryDx=0;entryDy=0;" parent="1" source="GoWqnwifKlF_Yr-xNYbi-3" target="OxW7yi1mNQBKnJ8u3WXz-2" edge="1">
          <mxGeometry relative="1" as="geometry" />
        </mxCell>
        <mxCell id="b2LkbIaox0D1EInB-J6t-39" style="edgeStyle=orthogonalEdgeStyle;rounded=0;orthogonalLoop=1;jettySize=auto;html=1;exitX=0;exitY=0.5;exitDx=0;exitDy=0;entryX=1;entryY=0.5;entryDx=0;entryDy=0;" parent="1" source="GoWqnwifKlF_Yr-xNYbi-3" target="6NfL-HVDj0801IJ6WpxN-48" edge="1">
          <mxGeometry relative="1" as="geometry" />
        </mxCell>
        <mxCell id="1A0tMCghKB87Aucakv52-73" style="edgeStyle=orthogonalEdgeStyle;rounded=0;orthogonalLoop=1;jettySize=auto;html=1;exitX=0;exitY=0.5;exitDx=0;exitDy=0;entryX=1;entryY=0.5;entryDx=0;entryDy=0;" parent="1" source="GoWqnwifKlF_Yr-xNYbi-3" target="1A0tMCghKB87Aucakv52-66" edge="1">
          <mxGeometry relative="1" as="geometry" />
        </mxCell>
        <mxCell id="1A0tMCghKB87Aucakv52-74" style="edgeStyle=orthogonalEdgeStyle;rounded=0;orthogonalLoop=1;jettySize=auto;html=1;exitX=0;exitY=0.5;exitDx=0;exitDy=0;entryX=1;entryY=0.5;entryDx=0;entryDy=0;" parent="1" source="GoWqnwifKlF_Yr-xNYbi-3" target="1A0tMCghKB87Aucakv52-20" edge="1">
          <mxGeometry relative="1" as="geometry" />
        </mxCell>
        <mxCell id="GoWqnwifKlF_Yr-xNYbi-3" value="Интерфейс" style="rounded=1;whiteSpace=wrap;html=1;arcSize=22;" parent="1" vertex="1">
          <mxGeometry x="140" y="360" width="120" height="40" as="geometry" />
        </mxCell>
        <mxCell id="FeyKXLo_ERHVsop2b5ah-100" style="edgeStyle=orthogonalEdgeStyle;rounded=0;orthogonalLoop=1;jettySize=auto;html=1;exitX=1;exitY=0.5;exitDx=0;exitDy=0;entryX=0;entryY=0.5;entryDx=0;entryDy=0;" parent="1" source="GoWqnwifKlF_Yr-xNYbi-4" target="FeyKXLo_ERHVsop2b5ah-7" edge="1">
          <mxGeometry relative="1" as="geometry" />
        </mxCell>
        <mxCell id="FeyKXLo_ERHVsop2b5ah-151" style="edgeStyle=orthogonalEdgeStyle;rounded=0;orthogonalLoop=1;jettySize=auto;html=1;exitX=1;exitY=0.5;exitDx=0;exitDy=0;entryX=0;entryY=0.5;entryDx=0;entryDy=0;" parent="1" source="GoWqnwifKlF_Yr-xNYbi-4" target="FeyKXLo_ERHVsop2b5ah-8" edge="1">
          <mxGeometry relative="1" as="geometry" />
        </mxCell>
        <mxCell id="GoWqnwifKlF_Yr-xNYbi-4" value="Проверка правильности ввода данных в поля" style="rounded=1;whiteSpace=wrap;html=1;arcSize=22;" parent="1" vertex="1">
          <mxGeometry x="720" y="140" width="120" height="40" as="geometry" />
        </mxCell>
        <mxCell id="FeyKXLo_ERHVsop2b5ah-43" style="edgeStyle=orthogonalEdgeStyle;rounded=0;orthogonalLoop=1;jettySize=auto;html=1;exitX=1;exitY=0.5;exitDx=0;exitDy=0;entryX=0;entryY=0.5;entryDx=0;entryDy=0;" parent="1" source="GoWqnwifKlF_Yr-xNYbi-5" target="FeyKXLo_ERHVsop2b5ah-40" edge="1">
          <mxGeometry relative="1" as="geometry" />
        </mxCell>
        <mxCell id="FeyKXLo_ERHVsop2b5ah-45" style="edgeStyle=orthogonalEdgeStyle;rounded=0;orthogonalLoop=1;jettySize=auto;html=1;exitX=1;exitY=0.5;exitDx=0;exitDy=0;entryX=0;entryY=0.5;entryDx=0;entryDy=0;" parent="1" source="GoWqnwifKlF_Yr-xNYbi-5" target="FeyKXLo_ERHVsop2b5ah-42" edge="1">
          <mxGeometry relative="1" as="geometry" />
        </mxCell>
        <mxCell id="DF6Im1o867pRgb7h0c81-3" style="edgeStyle=orthogonalEdgeStyle;rounded=0;orthogonalLoop=1;jettySize=auto;html=1;exitX=1;exitY=0.5;exitDx=0;exitDy=0;entryX=0;entryY=0.5;entryDx=0;entryDy=0;" parent="1" source="GoWqnwifKlF_Yr-xNYbi-5" target="FeyKXLo_ERHVsop2b5ah-41" edge="1">
          <mxGeometry relative="1" as="geometry" />
        </mxCell>
        <mxCell id="GoWqnwifKlF_Yr-xNYbi-5" value="Выбор вида транспорта и режима" style="rounded=1;whiteSpace=wrap;html=1;arcSize=22;" parent="1" vertex="1">
          <mxGeometry x="701.5" y="1185" width="120" height="40" as="geometry" />
        </mxCell>
        <mxCell id="b2LkbIaox0D1EInB-J6t-29" style="edgeStyle=orthogonalEdgeStyle;rounded=0;orthogonalLoop=1;jettySize=auto;html=1;exitX=0;exitY=0.5;exitDx=0;exitDy=0;entryX=1;entryY=0.5;entryDx=0;entryDy=0;" parent="1" source="GoWqnwifKlF_Yr-xNYbi-43" target="6NfL-HVDj0801IJ6WpxN-4" edge="1">
          <mxGeometry relative="1" as="geometry" />
        </mxCell>
        <mxCell id="b2LkbIaox0D1EInB-J6t-30" style="edgeStyle=orthogonalEdgeStyle;rounded=0;orthogonalLoop=1;jettySize=auto;html=1;exitX=0;exitY=0.5;exitDx=0;exitDy=0;entryX=1;entryY=0.5;entryDx=0;entryDy=0;" parent="1" source="GoWqnwifKlF_Yr-xNYbi-43" target="6NfL-HVDj0801IJ6WpxN-12" edge="1">
          <mxGeometry relative="1" as="geometry" />
        </mxCell>
        <mxCell id="GoWqnwifKlF_Yr-xNYbi-43" value="Панель выбора времени" style="rounded=1;whiteSpace=wrap;html=1;arcSize=22;" parent="1" vertex="1">
          <mxGeometry x="-90" y="720" width="120" height="40" as="geometry" />
        </mxCell>
        <mxCell id="b2LkbIaox0D1EInB-J6t-31" style="edgeStyle=orthogonalEdgeStyle;rounded=0;orthogonalLoop=1;jettySize=auto;html=1;exitX=0;exitY=0.5;exitDx=0;exitDy=0;entryX=1;entryY=0.5;entryDx=0;entryDy=0;" parent="1" source="GoWqnwifKlF_Yr-xNYbi-45" target="6NfL-HVDj0801IJ6WpxN-5" edge="1">
          <mxGeometry relative="1" as="geometry" />
        </mxCell>
        <mxCell id="b2LkbIaox0D1EInB-J6t-32" style="edgeStyle=orthogonalEdgeStyle;rounded=0;orthogonalLoop=1;jettySize=auto;html=1;exitX=0;exitY=0.5;exitDx=0;exitDy=0;entryX=1;entryY=0.5;entryDx=0;entryDy=0;" parent="1" source="GoWqnwifKlF_Yr-xNYbi-45" target="6NfL-HVDj0801IJ6WpxN-6" edge="1">
          <mxGeometry relative="1" as="geometry" />
        </mxCell>
        <mxCell id="GoWqnwifKlF_Yr-xNYbi-45" value="Панель выбора адреса" style="rounded=1;whiteSpace=wrap;html=1;arcSize=22;" parent="1" vertex="1">
          <mxGeometry x="-90" y="490" width="120" height="40" as="geometry" />
        </mxCell>
        <mxCell id="b2LkbIaox0D1EInB-J6t-52" style="edgeStyle=orthogonalEdgeStyle;rounded=0;orthogonalLoop=1;jettySize=auto;html=1;exitX=1;exitY=0.5;exitDx=0;exitDy=0;entryX=0;entryY=0.5;entryDx=0;entryDy=0;" parent="1" source="qn3d2HcTWaKksIYHcs9O-5" target="GoWqnwifKlF_Yr-xNYbi-5" edge="1">
          <mxGeometry relative="1" as="geometry" />
        </mxCell>
        <mxCell id="b2LkbIaox0D1EInB-J6t-53" style="edgeStyle=orthogonalEdgeStyle;rounded=0;orthogonalLoop=1;jettySize=auto;html=1;exitX=1;exitY=0.5;exitDx=0;exitDy=0;entryX=0;entryY=0.5;entryDx=0;entryDy=0;" parent="1" source="qn3d2HcTWaKksIYHcs9O-5" target="qn3d2HcTWaKksIYHcs9O-14" edge="1">
          <mxGeometry relative="1" as="geometry" />
        </mxCell>
        <mxCell id="b2LkbIaox0D1EInB-J6t-55" style="edgeStyle=orthogonalEdgeStyle;rounded=0;orthogonalLoop=1;jettySize=auto;html=1;exitX=1;exitY=0.5;exitDx=0;exitDy=0;entryX=0;entryY=0.5;entryDx=0;entryDy=0;" parent="1" source="qn3d2HcTWaKksIYHcs9O-5" target="GoWqnwifKlF_Yr-xNYbi-4" edge="1">
          <mxGeometry relative="1" as="geometry" />
        </mxCell>
        <mxCell id="1A0tMCghKB87Aucakv52-115" style="edgeStyle=orthogonalEdgeStyle;rounded=0;orthogonalLoop=1;jettySize=auto;html=1;exitX=1;exitY=0.5;exitDx=0;exitDy=0;entryX=0;entryY=0.25;entryDx=0;entryDy=0;" parent="1" source="qn3d2HcTWaKksIYHcs9O-5" target="1A0tMCghKB87Aucakv52-91" edge="1">
          <mxGeometry relative="1" as="geometry" />
        </mxCell>
        <mxCell id="qn3d2HcTWaKksIYHcs9O-5" value="Логика" style="rounded=1;whiteSpace=wrap;html=1;arcSize=22;" parent="1" vertex="1">
          <mxGeometry x="530" y="360" width="120" height="40" as="geometry" />
        </mxCell>
        <mxCell id="z40Iqxck2a3rIB7Wj1cB-14" style="edgeStyle=orthogonalEdgeStyle;rounded=0;orthogonalLoop=1;jettySize=auto;html=1;exitX=1;exitY=0.5;exitDx=0;exitDy=0;entryX=0;entryY=0.5;entryDx=0;entryDy=0;" parent="1" source="qn3d2HcTWaKksIYHcs9O-14" target="z40Iqxck2a3rIB7Wj1cB-5" edge="1">
          <mxGeometry relative="1" as="geometry" />
        </mxCell>
        <mxCell id="h4jfoluIQZgbmN_4Dib1-2" style="edgeStyle=orthogonalEdgeStyle;rounded=0;orthogonalLoop=1;jettySize=auto;html=1;exitX=1;exitY=0.5;exitDx=0;exitDy=0;entryX=0;entryY=0.5;entryDx=0;entryDy=0;" parent="1" source="qn3d2HcTWaKksIYHcs9O-14" target="h4jfoluIQZgbmN_4Dib1-1" edge="1">
          <mxGeometry relative="1" as="geometry" />
        </mxCell>
        <mxCell id="qn3d2HcTWaKksIYHcs9O-14" value="Расчёт времени и стоимости" style="rounded=1;whiteSpace=wrap;html=1;arcSize=22;" parent="1" vertex="1">
          <mxGeometry x="701.5" y="2567" width="120" height="40" as="geometry" />
        </mxCell>
        <mxCell id="FeyKXLo_ERHVsop2b5ah-50" style="edgeStyle=orthogonalEdgeStyle;rounded=0;orthogonalLoop=1;jettySize=auto;html=1;exitX=0;exitY=0.5;exitDx=0;exitDy=0;entryX=1;entryY=0.5;entryDx=0;entryDy=0;" parent="1" source="OxW7yi1mNQBKnJ8u3WXz-2" target="6NfL-HVDj0801IJ6WpxN-17" edge="1">
          <mxGeometry relative="1" as="geometry" />
        </mxCell>
        <mxCell id="FeyKXLo_ERHVsop2b5ah-51" style="edgeStyle=orthogonalEdgeStyle;rounded=0;orthogonalLoop=1;jettySize=auto;html=1;exitX=0;exitY=0.5;exitDx=0;exitDy=0;entryX=1;entryY=0.5;entryDx=0;entryDy=0;" parent="1" source="OxW7yi1mNQBKnJ8u3WXz-2" target="6NfL-HVDj0801IJ6WpxN-18" edge="1">
          <mxGeometry relative="1" as="geometry" />
        </mxCell>
        <mxCell id="FeyKXLo_ERHVsop2b5ah-53" style="edgeStyle=orthogonalEdgeStyle;rounded=0;orthogonalLoop=1;jettySize=auto;html=1;exitX=0;exitY=0.5;exitDx=0;exitDy=0;entryX=1;entryY=0.5;entryDx=0;entryDy=0;" parent="1" source="OxW7yi1mNQBKnJ8u3WXz-2" target="6NfL-HVDj0801IJ6WpxN-16" edge="1">
          <mxGeometry relative="1" as="geometry" />
        </mxCell>
        <mxCell id="OxW7yi1mNQBKnJ8u3WXz-2" value="Панель выбора режима" style="rounded=1;whiteSpace=wrap;html=1;arcSize=22;" parent="1" vertex="1">
          <mxGeometry x="-90" y="935" width="120" height="40" as="geometry" />
        </mxCell>
        <mxCell id="6NfL-HVDj0801IJ6WpxN-4" value="Поле ввода &quot;Часы&quot;" style="rounded=1;whiteSpace=wrap;html=1;arcSize=22;" parent="1" vertex="1">
          <mxGeometry x="-265" y="700" width="120" height="40" as="geometry" />
        </mxCell>
        <mxCell id="6NfL-HVDj0801IJ6WpxN-5" value="Поле ввода &quot;Откуда&quot;" style="rounded=1;whiteSpace=wrap;html=1;arcSize=22;" parent="1" vertex="1">
          <mxGeometry x="-270" y="420" width="120" height="40" as="geometry" />
        </mxCell>
        <mxCell id="6NfL-HVDj0801IJ6WpxN-6" value="Поле ввода &quot;Куда&quot;" style="rounded=1;whiteSpace=wrap;html=1;arcSize=22;" parent="1" vertex="1">
          <mxGeometry x="-270" y="550" width="120" height="40" as="geometry" />
        </mxCell>
        <mxCell id="6NfL-HVDj0801IJ6WpxN-12" value="Поле ввода &quot;Минуты&quot;" style="rounded=1;whiteSpace=wrap;html=1;arcSize=22;" parent="1" vertex="1">
          <mxGeometry x="-265" y="760" width="120" height="40" as="geometry" />
        </mxCell>
        <mxCell id="1A0tMCghKB87Aucakv52-84" style="edgeStyle=orthogonalEdgeStyle;rounded=0;orthogonalLoop=1;jettySize=auto;html=1;exitX=0;exitY=0.5;exitDx=0;exitDy=0;entryX=1;entryY=0.5;entryDx=0;entryDy=0;" parent="1" source="6NfL-HVDj0801IJ6WpxN-16" target="1A0tMCghKB87Aucakv52-79" edge="1">
          <mxGeometry relative="1" as="geometry" />
        </mxCell>
        <mxCell id="6NfL-HVDj0801IJ6WpxN-16" value="Режим &quot;Оптимальный&quot;" style="rounded=1;whiteSpace=wrap;html=1;arcSize=22;" parent="1" vertex="1">
          <mxGeometry x="-580" y="875" width="120" height="40" as="geometry" />
        </mxCell>
        <mxCell id="1A0tMCghKB87Aucakv52-83" style="edgeStyle=orthogonalEdgeStyle;rounded=0;orthogonalLoop=1;jettySize=auto;html=1;exitX=0;exitY=0.5;exitDx=0;exitDy=0;entryX=1;entryY=0.5;entryDx=0;entryDy=0;" parent="1" source="6NfL-HVDj0801IJ6WpxN-17" target="1A0tMCghKB87Aucakv52-80" edge="1">
          <mxGeometry relative="1" as="geometry" />
        </mxCell>
        <mxCell id="6NfL-HVDj0801IJ6WpxN-17" value="Режим &quot;Быстрый&quot;" style="rounded=1;whiteSpace=wrap;html=1;arcSize=22;" parent="1" vertex="1">
          <mxGeometry x="-580" y="935" width="120" height="40" as="geometry" />
        </mxCell>
        <mxCell id="1A0tMCghKB87Aucakv52-82" style="edgeStyle=orthogonalEdgeStyle;rounded=0;orthogonalLoop=1;jettySize=auto;html=1;exitX=0;exitY=0.5;exitDx=0;exitDy=0;" parent="1" source="6NfL-HVDj0801IJ6WpxN-18" target="1A0tMCghKB87Aucakv52-81" edge="1">
          <mxGeometry relative="1" as="geometry" />
        </mxCell>
        <mxCell id="6NfL-HVDj0801IJ6WpxN-18" value="Режим &quot;Свой&quot;" style="rounded=1;whiteSpace=wrap;html=1;arcSize=22;" parent="1" vertex="1">
          <mxGeometry x="-580" y="990" width="120" height="40" as="geometry" />
        </mxCell>
        <mxCell id="r7nQnhasPK6SVWUn0nqD-8" style="edgeStyle=orthogonalEdgeStyle;rounded=0;orthogonalLoop=1;jettySize=auto;html=1;exitX=0;exitY=0.5;exitDx=0;exitDy=0;" parent="1" source="6NfL-HVDj0801IJ6WpxN-29" target="r7nQnhasPK6SVWUn0nqD-2" edge="1">
          <mxGeometry relative="1" as="geometry" />
        </mxCell>
        <mxCell id="6NfL-HVDj0801IJ6WpxN-29" value="Свой автомобиль" style="rounded=1;whiteSpace=wrap;html=1;arcSize=22;" parent="1" vertex="1">
          <mxGeometry x="-580" y="1085" width="120" height="40" as="geometry" />
        </mxCell>
        <mxCell id="r7nQnhasPK6SVWUn0nqD-9" style="edgeStyle=orthogonalEdgeStyle;rounded=0;orthogonalLoop=1;jettySize=auto;html=1;exitX=0;exitY=0.5;exitDx=0;exitDy=0;entryX=1;entryY=0.5;entryDx=0;entryDy=0;" parent="1" source="6NfL-HVDj0801IJ6WpxN-30" target="3H2eXbhgfERCYtj9rPeK-1" edge="1">
          <mxGeometry relative="1" as="geometry" />
        </mxCell>
        <mxCell id="6NfL-HVDj0801IJ6WpxN-30" value="Каршеринг" style="rounded=1;whiteSpace=wrap;html=1;arcSize=22;" parent="1" vertex="1">
          <mxGeometry x="-580" y="1137" width="120" height="40" as="geometry" />
        </mxCell>
        <mxCell id="r7nQnhasPK6SVWUn0nqD-10" style="edgeStyle=orthogonalEdgeStyle;rounded=0;orthogonalLoop=1;jettySize=auto;html=1;exitX=0;exitY=0.5;exitDx=0;exitDy=0;entryX=1;entryY=0.5;entryDx=0;entryDy=0;" parent="1" source="6NfL-HVDj0801IJ6WpxN-31" target="r7nQnhasPK6SVWUn0nqD-3" edge="1">
          <mxGeometry relative="1" as="geometry" />
        </mxCell>
        <mxCell id="6NfL-HVDj0801IJ6WpxN-31" value="Такси" style="rounded=1;whiteSpace=wrap;html=1;arcSize=22;" parent="1" vertex="1">
          <mxGeometry x="-580" y="1185" width="120" height="40" as="geometry" />
        </mxCell>
        <mxCell id="r7nQnhasPK6SVWUn0nqD-11" style="edgeStyle=orthogonalEdgeStyle;rounded=0;orthogonalLoop=1;jettySize=auto;html=1;exitX=0;exitY=0.5;exitDx=0;exitDy=0;entryX=1;entryY=0.5;entryDx=0;entryDy=0;" parent="1" source="6NfL-HVDj0801IJ6WpxN-32" target="r7nQnhasPK6SVWUn0nqD-4" edge="1">
          <mxGeometry relative="1" as="geometry" />
        </mxCell>
        <mxCell id="6NfL-HVDj0801IJ6WpxN-32" value="Шеринг самокатов" style="rounded=1;whiteSpace=wrap;html=1;arcSize=22;" parent="1" vertex="1">
          <mxGeometry x="-580" y="1240" width="120" height="40" as="geometry" />
        </mxCell>
        <mxCell id="r7nQnhasPK6SVWUn0nqD-12" style="edgeStyle=orthogonalEdgeStyle;rounded=0;orthogonalLoop=1;jettySize=auto;html=1;exitX=0;exitY=0.5;exitDx=0;exitDy=0;entryX=1;entryY=0.5;entryDx=0;entryDy=0;" parent="1" source="6NfL-HVDj0801IJ6WpxN-34" target="r7nQnhasPK6SVWUn0nqD-5" edge="1">
          <mxGeometry relative="1" as="geometry" />
        </mxCell>
        <mxCell id="6NfL-HVDj0801IJ6WpxN-34" value="Шеринг велосипедов" style="rounded=1;whiteSpace=wrap;html=1;arcSize=22;" parent="1" vertex="1">
          <mxGeometry x="-580" y="1300" width="120" height="40" as="geometry" />
        </mxCell>
        <mxCell id="r7nQnhasPK6SVWUn0nqD-13" style="edgeStyle=orthogonalEdgeStyle;rounded=0;orthogonalLoop=1;jettySize=auto;html=1;exitX=0;exitY=0.5;exitDx=0;exitDy=0;entryX=1;entryY=0.5;entryDx=0;entryDy=0;" parent="1" source="6NfL-HVDj0801IJ6WpxN-35" target="r7nQnhasPK6SVWUn0nqD-6" edge="1">
          <mxGeometry relative="1" as="geometry" />
        </mxCell>
        <mxCell id="6NfL-HVDj0801IJ6WpxN-35" value="Пешком" style="rounded=1;whiteSpace=wrap;html=1;arcSize=22;" parent="1" vertex="1">
          <mxGeometry x="-580" y="1360" width="120" height="40" as="geometry" />
        </mxCell>
        <mxCell id="b2LkbIaox0D1EInB-J6t-33" style="edgeStyle=orthogonalEdgeStyle;rounded=0;orthogonalLoop=1;jettySize=auto;html=1;exitX=0;exitY=0.5;exitDx=0;exitDy=0;entryX=1;entryY=0.5;entryDx=0;entryDy=0;" parent="1" source="6NfL-HVDj0801IJ6WpxN-40" target="6NfL-HVDj0801IJ6WpxN-41" edge="1">
          <mxGeometry relative="1" as="geometry" />
        </mxCell>
        <mxCell id="b2LkbIaox0D1EInB-J6t-34" style="edgeStyle=orthogonalEdgeStyle;rounded=0;orthogonalLoop=1;jettySize=auto;html=1;exitX=0;exitY=0.5;exitDx=0;exitDy=0;entryX=1;entryY=0.5;entryDx=0;entryDy=0;" parent="1" source="6NfL-HVDj0801IJ6WpxN-40" target="6NfL-HVDj0801IJ6WpxN-42" edge="1">
          <mxGeometry relative="1" as="geometry" />
        </mxCell>
        <mxCell id="6NfL-HVDj0801IJ6WpxN-40" value="Верхний блок" style="rounded=1;whiteSpace=wrap;html=1;arcSize=22;" parent="1" vertex="1">
          <mxGeometry x="-90" y="90" width="120" height="40" as="geometry" />
        </mxCell>
        <mxCell id="6NfL-HVDj0801IJ6WpxN-41" value="Логотип &quot;Яндекс&quot;" style="rounded=1;whiteSpace=wrap;html=1;arcSize=22;" parent="1" vertex="1">
          <mxGeometry x="-307" y="40" width="120" height="40" as="geometry" />
        </mxCell>
        <mxCell id="6NfL-HVDj0801IJ6WpxN-42" value="Логотип &quot;Маршруты&quot;" style="rounded=1;whiteSpace=wrap;html=1;arcSize=22;" parent="1" vertex="1">
          <mxGeometry x="-307" y="130" width="120" height="40" as="geometry" />
        </mxCell>
        <mxCell id="b2LkbIaox0D1EInB-J6t-15" style="edgeStyle=orthogonalEdgeStyle;rounded=0;orthogonalLoop=1;jettySize=auto;html=1;exitX=0;exitY=0.5;exitDx=0;exitDy=0;entryX=1;entryY=0.5;entryDx=0;entryDy=0;" parent="1" source="6NfL-HVDj0801IJ6WpxN-48" target="b2LkbIaox0D1EInB-J6t-5" edge="1">
          <mxGeometry relative="1" as="geometry" />
        </mxCell>
        <mxCell id="b2LkbIaox0D1EInB-J6t-16" style="edgeStyle=orthogonalEdgeStyle;rounded=0;orthogonalLoop=1;jettySize=auto;html=1;exitX=0;exitY=0.5;exitDx=0;exitDy=0;entryX=1;entryY=0.5;entryDx=0;entryDy=0;" parent="1" source="6NfL-HVDj0801IJ6WpxN-48" target="b2LkbIaox0D1EInB-J6t-10" edge="1">
          <mxGeometry relative="1" as="geometry" />
        </mxCell>
        <mxCell id="b2LkbIaox0D1EInB-J6t-17" style="edgeStyle=orthogonalEdgeStyle;rounded=0;orthogonalLoop=1;jettySize=auto;html=1;exitX=0;exitY=0.5;exitDx=0;exitDy=0;entryX=1;entryY=0.5;entryDx=0;entryDy=0;" parent="1" source="6NfL-HVDj0801IJ6WpxN-48" target="b2LkbIaox0D1EInB-J6t-11" edge="1">
          <mxGeometry relative="1" as="geometry" />
        </mxCell>
        <mxCell id="FeyKXLo_ERHVsop2b5ah-98" style="edgeStyle=orthogonalEdgeStyle;rounded=0;orthogonalLoop=1;jettySize=auto;html=1;exitX=0;exitY=0.5;exitDx=0;exitDy=0;entryX=1;entryY=0.5;entryDx=0;entryDy=0;" parent="1" source="6NfL-HVDj0801IJ6WpxN-48" target="FeyKXLo_ERHVsop2b5ah-94" edge="1">
          <mxGeometry relative="1" as="geometry" />
        </mxCell>
        <mxCell id="1A0tMCghKB87Aucakv52-43" style="edgeStyle=orthogonalEdgeStyle;rounded=0;orthogonalLoop=1;jettySize=auto;html=1;exitX=0;exitY=0.5;exitDx=0;exitDy=0;entryX=1;entryY=0.5;entryDx=0;entryDy=0;" parent="1" source="6NfL-HVDj0801IJ6WpxN-48" target="1A0tMCghKB87Aucakv52-17" edge="1">
          <mxGeometry relative="1" as="geometry" />
        </mxCell>
        <mxCell id="6NfL-HVDj0801IJ6WpxN-48" value="Карта" style="rounded=1;whiteSpace=wrap;html=1;arcSize=22;" parent="1" vertex="1">
          <mxGeometry x="-90" y="1726" width="120" height="40" as="geometry" />
        </mxCell>
        <mxCell id="b2LkbIaox0D1EInB-J6t-5" value="Условия Использования&amp;nbsp;" style="rounded=1;whiteSpace=wrap;html=1;arcSize=22;" parent="1" vertex="1">
          <mxGeometry x="-657" y="1987" width="120" height="40" as="geometry" />
        </mxCell>
        <mxCell id="b2LkbIaox0D1EInB-J6t-7" value="Ползунок изменения масштаба" style="rounded=1;whiteSpace=wrap;html=1;arcSize=22;" parent="1" vertex="1">
          <mxGeometry x="-817" y="1848" width="120" height="40" as="geometry" />
        </mxCell>
        <mxCell id="b2LkbIaox0D1EInB-J6t-8" value="Кнопка - (Уменьшить масштаб)" style="rounded=1;whiteSpace=wrap;html=1;arcSize=22;" parent="1" vertex="1">
          <mxGeometry x="-817" y="1797" width="120" height="40" as="geometry" />
        </mxCell>
        <mxCell id="b2LkbIaox0D1EInB-J6t-9" value="Кнопка + (Увеличить масштаб)" style="rounded=1;whiteSpace=wrap;html=1;arcSize=22;" parent="1" vertex="1">
          <mxGeometry x="-817" y="1738" width="120" height="40" as="geometry" />
        </mxCell>
        <mxCell id="b2LkbIaox0D1EInB-J6t-10" value="Открыть в Яндекс.Картах" style="rounded=1;whiteSpace=wrap;html=1;arcSize=22;" parent="1" vertex="1">
          <mxGeometry x="-657" y="2035" width="120" height="40" as="geometry" />
        </mxCell>
        <mxCell id="b2LkbIaox0D1EInB-J6t-44" style="edgeStyle=orthogonalEdgeStyle;rounded=0;orthogonalLoop=1;jettySize=auto;html=1;exitX=0;exitY=0.5;exitDx=0;exitDy=0;entryX=1;entryY=0.5;entryDx=0;entryDy=0;" parent="1" source="b2LkbIaox0D1EInB-J6t-11" target="b2LkbIaox0D1EInB-J6t-43" edge="1">
          <mxGeometry relative="1" as="geometry" />
        </mxCell>
        <mxCell id="b2LkbIaox0D1EInB-J6t-45" style="edgeStyle=orthogonalEdgeStyle;rounded=0;orthogonalLoop=1;jettySize=auto;html=1;exitX=0;exitY=0.5;exitDx=0;exitDy=0;entryX=1;entryY=0.5;entryDx=0;entryDy=0;" parent="1" source="b2LkbIaox0D1EInB-J6t-11" target="b2LkbIaox0D1EInB-J6t-42" edge="1">
          <mxGeometry relative="1" as="geometry" />
        </mxCell>
        <mxCell id="FeyKXLo_ERHVsop2b5ah-93" style="edgeStyle=orthogonalEdgeStyle;rounded=0;orthogonalLoop=1;jettySize=auto;html=1;exitX=0;exitY=0.5;exitDx=0;exitDy=0;entryX=1;entryY=0.5;entryDx=0;entryDy=0;" parent="1" source="b2LkbIaox0D1EInB-J6t-11" target="FeyKXLo_ERHVsop2b5ah-92" edge="1">
          <mxGeometry relative="1" as="geometry" />
        </mxCell>
        <mxCell id="b2LkbIaox0D1EInB-J6t-11" value="Построение маршрута" style="rounded=1;whiteSpace=wrap;html=1;arcSize=22;" parent="1" vertex="1">
          <mxGeometry x="-657" y="2085" width="120" height="40" as="geometry" />
        </mxCell>
        <mxCell id="b2LkbIaox0D1EInB-J6t-42" value="Точка B" style="rounded=1;whiteSpace=wrap;html=1;arcSize=22;" parent="1" vertex="1">
          <mxGeometry x="-827" y="2145" width="120" height="40" as="geometry" />
        </mxCell>
        <mxCell id="b2LkbIaox0D1EInB-J6t-43" value="Точка A" style="rounded=1;whiteSpace=wrap;html=1;arcSize=22;" parent="1" vertex="1">
          <mxGeometry x="-827" y="2095" width="120" height="40" as="geometry" />
        </mxCell>
        <mxCell id="FeyKXLo_ERHVsop2b5ah-17" style="edgeStyle=orthogonalEdgeStyle;rounded=0;orthogonalLoop=1;jettySize=auto;html=1;exitX=1;exitY=0.5;exitDx=0;exitDy=0;entryX=0;entryY=0.5;entryDx=0;entryDy=0;" parent="1" source="FeyKXLo_ERHVsop2b5ah-7" target="FeyKXLo_ERHVsop2b5ah-11" edge="1">
          <mxGeometry relative="1" as="geometry" />
        </mxCell>
        <mxCell id="FeyKXLo_ERHVsop2b5ah-18" style="edgeStyle=orthogonalEdgeStyle;rounded=0;orthogonalLoop=1;jettySize=auto;html=1;exitX=1;exitY=0.5;exitDx=0;exitDy=0;entryX=0;entryY=0.5;entryDx=0;entryDy=0;" parent="1" source="FeyKXLo_ERHVsop2b5ah-7" target="FeyKXLo_ERHVsop2b5ah-12" edge="1">
          <mxGeometry relative="1" as="geometry" />
        </mxCell>
        <mxCell id="FeyKXLo_ERHVsop2b5ah-7" value="Панель выбора адреса" style="rounded=1;whiteSpace=wrap;html=1;arcSize=22;" parent="1" vertex="1">
          <mxGeometry x="890" y="20" width="120" height="40" as="geometry" />
        </mxCell>
        <mxCell id="FeyKXLo_ERHVsop2b5ah-15" style="edgeStyle=orthogonalEdgeStyle;rounded=0;orthogonalLoop=1;jettySize=auto;html=1;exitX=1;exitY=0.5;exitDx=0;exitDy=0;entryX=0;entryY=0.5;entryDx=0;entryDy=0;" parent="1" source="FeyKXLo_ERHVsop2b5ah-8" target="FeyKXLo_ERHVsop2b5ah-14" edge="1">
          <mxGeometry relative="1" as="geometry" />
        </mxCell>
        <mxCell id="FeyKXLo_ERHVsop2b5ah-16" style="edgeStyle=orthogonalEdgeStyle;rounded=0;orthogonalLoop=1;jettySize=auto;html=1;exitX=1;exitY=0.5;exitDx=0;exitDy=0;entryX=0;entryY=0.5;entryDx=0;entryDy=0;" parent="1" source="FeyKXLo_ERHVsop2b5ah-8" target="FeyKXLo_ERHVsop2b5ah-13" edge="1">
          <mxGeometry relative="1" as="geometry" />
        </mxCell>
        <mxCell id="FeyKXLo_ERHVsop2b5ah-8" value="Панель выбора времени" style="rounded=1;whiteSpace=wrap;html=1;arcSize=22;" parent="1" vertex="1">
          <mxGeometry x="890" y="550" width="120" height="40" as="geometry" />
        </mxCell>
        <mxCell id="FeyKXLo_ERHVsop2b5ah-110" style="edgeStyle=orthogonalEdgeStyle;rounded=0;orthogonalLoop=1;jettySize=auto;html=1;exitX=1;exitY=0.5;exitDx=0;exitDy=0;entryX=0;entryY=0.5;entryDx=0;entryDy=0;" parent="1" source="FeyKXLo_ERHVsop2b5ah-11" target="FeyKXLo_ERHVsop2b5ah-109" edge="1">
          <mxGeometry relative="1" as="geometry" />
        </mxCell>
        <mxCell id="FeyKXLo_ERHVsop2b5ah-111" style="edgeStyle=orthogonalEdgeStyle;rounded=0;orthogonalLoop=1;jettySize=auto;html=1;exitX=1;exitY=0.5;exitDx=0;exitDy=0;entryX=0;entryY=0.5;entryDx=0;entryDy=0;" parent="1" source="FeyKXLo_ERHVsop2b5ah-11" target="FeyKXLo_ERHVsop2b5ah-108" edge="1">
          <mxGeometry relative="1" as="geometry" />
        </mxCell>
        <mxCell id="FeyKXLo_ERHVsop2b5ah-11" value="Поле ввода &quot;Откуда&quot;" style="rounded=1;whiteSpace=wrap;html=1;arcSize=22;" parent="1" vertex="1">
          <mxGeometry x="1050" y="20" width="120" height="40" as="geometry" />
        </mxCell>
        <mxCell id="FeyKXLo_ERHVsop2b5ah-124" style="edgeStyle=orthogonalEdgeStyle;rounded=0;orthogonalLoop=1;jettySize=auto;html=1;exitX=1;exitY=0.5;exitDx=0;exitDy=0;entryX=0;entryY=0.5;entryDx=0;entryDy=0;" parent="1" source="FeyKXLo_ERHVsop2b5ah-12" target="FeyKXLo_ERHVsop2b5ah-123" edge="1">
          <mxGeometry relative="1" as="geometry" />
        </mxCell>
        <mxCell id="FeyKXLo_ERHVsop2b5ah-125" style="edgeStyle=orthogonalEdgeStyle;rounded=0;orthogonalLoop=1;jettySize=auto;html=1;exitX=1;exitY=0.5;exitDx=0;exitDy=0;entryX=0;entryY=0.5;entryDx=0;entryDy=0;" parent="1" source="FeyKXLo_ERHVsop2b5ah-12" target="FeyKXLo_ERHVsop2b5ah-122" edge="1">
          <mxGeometry relative="1" as="geometry" />
        </mxCell>
        <mxCell id="FeyKXLo_ERHVsop2b5ah-12" value="Поле ввода &quot;Куда&quot;" style="rounded=1;whiteSpace=wrap;html=1;arcSize=22;" parent="1" vertex="1">
          <mxGeometry x="1050" y="340" width="120" height="40" as="geometry" />
        </mxCell>
        <mxCell id="FeyKXLo_ERHVsop2b5ah-174" style="edgeStyle=orthogonalEdgeStyle;rounded=0;orthogonalLoop=1;jettySize=auto;html=1;exitX=1;exitY=0.5;exitDx=0;exitDy=0;entryX=0;entryY=0.5;entryDx=0;entryDy=0;" parent="1" source="FeyKXLo_ERHVsop2b5ah-13" target="FeyKXLo_ERHVsop2b5ah-166" edge="1">
          <mxGeometry relative="1" as="geometry" />
        </mxCell>
        <mxCell id="FeyKXLo_ERHVsop2b5ah-175" style="edgeStyle=orthogonalEdgeStyle;rounded=0;orthogonalLoop=1;jettySize=auto;html=1;exitX=1;exitY=0.5;exitDx=0;exitDy=0;entryX=0;entryY=0.5;entryDx=0;entryDy=0;" parent="1" source="FeyKXLo_ERHVsop2b5ah-13" target="FeyKXLo_ERHVsop2b5ah-169" edge="1">
          <mxGeometry relative="1" as="geometry" />
        </mxCell>
        <mxCell id="FeyKXLo_ERHVsop2b5ah-13" value="Поле ввода &quot;Минуты&quot;" style="rounded=1;whiteSpace=wrap;html=1;arcSize=22;" parent="1" vertex="1">
          <mxGeometry x="1050" y="890" width="120" height="40" as="geometry" />
        </mxCell>
        <mxCell id="FeyKXLo_ERHVsop2b5ah-140" style="edgeStyle=orthogonalEdgeStyle;rounded=0;orthogonalLoop=1;jettySize=auto;html=1;exitX=1;exitY=0.5;exitDx=0;exitDy=0;entryX=0;entryY=0.5;entryDx=0;entryDy=0;" parent="1" source="FeyKXLo_ERHVsop2b5ah-14" target="FeyKXLo_ERHVsop2b5ah-138" edge="1">
          <mxGeometry relative="1" as="geometry" />
        </mxCell>
        <mxCell id="FeyKXLo_ERHVsop2b5ah-141" style="edgeStyle=orthogonalEdgeStyle;rounded=0;orthogonalLoop=1;jettySize=auto;html=1;exitX=1;exitY=0.5;exitDx=0;exitDy=0;entryX=0;entryY=0.5;entryDx=0;entryDy=0;" parent="1" source="FeyKXLo_ERHVsop2b5ah-14" target="FeyKXLo_ERHVsop2b5ah-139" edge="1">
          <mxGeometry relative="1" as="geometry" />
        </mxCell>
        <mxCell id="FeyKXLo_ERHVsop2b5ah-14" value="Поле ввода &quot;Часы&quot;" style="rounded=1;whiteSpace=wrap;html=1;arcSize=22;" parent="1" vertex="1">
          <mxGeometry x="1050" y="545" width="120" height="40" as="geometry" />
        </mxCell>
        <mxCell id="P5Mt6lCAIPkF4njqv7vm-5" style="edgeStyle=orthogonalEdgeStyle;rounded=0;orthogonalLoop=1;jettySize=auto;html=1;exitX=1;exitY=0.5;exitDx=0;exitDy=0;entryX=0;entryY=0.5;entryDx=0;entryDy=0;" parent="1" source="FeyKXLo_ERHVsop2b5ah-40" target="P5Mt6lCAIPkF4njqv7vm-1" edge="1">
          <mxGeometry relative="1" as="geometry" />
        </mxCell>
        <mxCell id="P5Mt6lCAIPkF4njqv7vm-6" style="edgeStyle=orthogonalEdgeStyle;rounded=0;orthogonalLoop=1;jettySize=auto;html=1;exitX=1;exitY=0.5;exitDx=0;exitDy=0;entryX=0;entryY=0.5;entryDx=0;entryDy=0;" parent="1" source="FeyKXLo_ERHVsop2b5ah-40" target="P5Mt6lCAIPkF4njqv7vm-2" edge="1">
          <mxGeometry relative="1" as="geometry" />
        </mxCell>
        <mxCell id="P5Mt6lCAIPkF4njqv7vm-7" style="edgeStyle=orthogonalEdgeStyle;rounded=0;orthogonalLoop=1;jettySize=auto;html=1;exitX=1;exitY=0.5;exitDx=0;exitDy=0;entryX=0;entryY=0.5;entryDx=0;entryDy=0;" parent="1" source="FeyKXLo_ERHVsop2b5ah-40" target="P5Mt6lCAIPkF4njqv7vm-3" edge="1">
          <mxGeometry relative="1" as="geometry" />
        </mxCell>
        <mxCell id="P5Mt6lCAIPkF4njqv7vm-8" style="edgeStyle=orthogonalEdgeStyle;rounded=0;orthogonalLoop=1;jettySize=auto;html=1;exitX=1;exitY=0.5;exitDx=0;exitDy=0;entryX=0;entryY=0.5;entryDx=0;entryDy=0;" parent="1" source="FeyKXLo_ERHVsop2b5ah-40" target="P5Mt6lCAIPkF4njqv7vm-4" edge="1">
          <mxGeometry relative="1" as="geometry" />
        </mxCell>
        <mxCell id="FeyKXLo_ERHVsop2b5ah-40" value="Режим &quot;Оптимальный&quot;" style="rounded=1;whiteSpace=wrap;html=1;arcSize=22;" parent="1" vertex="1">
          <mxGeometry x="930" y="1110" width="120" height="40" as="geometry" />
        </mxCell>
        <mxCell id="8ylpdoqKV9zqvuCdrpWe-5" style="edgeStyle=orthogonalEdgeStyle;rounded=0;orthogonalLoop=1;jettySize=auto;html=1;exitX=1;exitY=0.5;exitDx=0;exitDy=0;entryX=0;entryY=0.5;entryDx=0;entryDy=0;" parent="1" source="FeyKXLo_ERHVsop2b5ah-41" target="8ylpdoqKV9zqvuCdrpWe-1" edge="1">
          <mxGeometry relative="1" as="geometry" />
        </mxCell>
        <mxCell id="8ylpdoqKV9zqvuCdrpWe-6" style="edgeStyle=orthogonalEdgeStyle;rounded=0;orthogonalLoop=1;jettySize=auto;html=1;exitX=1;exitY=0.5;exitDx=0;exitDy=0;entryX=0;entryY=0.5;entryDx=0;entryDy=0;" parent="1" source="FeyKXLo_ERHVsop2b5ah-41" target="8ylpdoqKV9zqvuCdrpWe-2" edge="1">
          <mxGeometry relative="1" as="geometry" />
        </mxCell>
        <mxCell id="8ylpdoqKV9zqvuCdrpWe-7" style="edgeStyle=orthogonalEdgeStyle;rounded=0;orthogonalLoop=1;jettySize=auto;html=1;exitX=1;exitY=0.5;exitDx=0;exitDy=0;entryX=0;entryY=0.5;entryDx=0;entryDy=0;" parent="1" source="FeyKXLo_ERHVsop2b5ah-41" target="8ylpdoqKV9zqvuCdrpWe-3" edge="1">
          <mxGeometry relative="1" as="geometry" />
        </mxCell>
        <mxCell id="8ylpdoqKV9zqvuCdrpWe-8" style="edgeStyle=orthogonalEdgeStyle;rounded=0;orthogonalLoop=1;jettySize=auto;html=1;exitX=1;exitY=0.5;exitDx=0;exitDy=0;entryX=0;entryY=0.5;entryDx=0;entryDy=0;" parent="1" source="FeyKXLo_ERHVsop2b5ah-41" target="8ylpdoqKV9zqvuCdrpWe-4" edge="1">
          <mxGeometry relative="1" as="geometry" />
        </mxCell>
        <mxCell id="FeyKXLo_ERHVsop2b5ah-41" value="Режим &quot;Быстрый&quot;" style="rounded=1;whiteSpace=wrap;html=1;arcSize=22;" parent="1" vertex="1">
          <mxGeometry x="930" y="1290" width="120" height="40" as="geometry" />
        </mxCell>
        <mxCell id="1A0tMCghKB87Aucakv52-85" style="edgeStyle=orthogonalEdgeStyle;rounded=0;orthogonalLoop=1;jettySize=auto;html=1;exitX=1;exitY=0.5;exitDx=0;exitDy=0;entryX=0;entryY=0.5;entryDx=0;entryDy=0;" parent="1" source="FeyKXLo_ERHVsop2b5ah-42" target="DF6Im1o867pRgb7h0c81-10" edge="1">
          <mxGeometry relative="1" as="geometry" />
        </mxCell>
        <mxCell id="1A0tMCghKB87Aucakv52-86" style="edgeStyle=orthogonalEdgeStyle;rounded=0;orthogonalLoop=1;jettySize=auto;html=1;exitX=1;exitY=0.5;exitDx=0;exitDy=0;entryX=0;entryY=0.5;entryDx=0;entryDy=0;" parent="1" source="FeyKXLo_ERHVsop2b5ah-42" target="DF6Im1o867pRgb7h0c81-11" edge="1">
          <mxGeometry relative="1" as="geometry" />
        </mxCell>
        <mxCell id="1A0tMCghKB87Aucakv52-87" style="edgeStyle=orthogonalEdgeStyle;rounded=0;orthogonalLoop=1;jettySize=auto;html=1;exitX=1;exitY=0.5;exitDx=0;exitDy=0;entryX=0;entryY=0.5;entryDx=0;entryDy=0;" parent="1" source="FeyKXLo_ERHVsop2b5ah-42" target="DF6Im1o867pRgb7h0c81-12" edge="1">
          <mxGeometry relative="1" as="geometry" />
        </mxCell>
        <mxCell id="1A0tMCghKB87Aucakv52-88" style="edgeStyle=orthogonalEdgeStyle;rounded=0;orthogonalLoop=1;jettySize=auto;html=1;exitX=1;exitY=0.5;exitDx=0;exitDy=0;entryX=0;entryY=0.5;entryDx=0;entryDy=0;" parent="1" source="FeyKXLo_ERHVsop2b5ah-42" target="DF6Im1o867pRgb7h0c81-13" edge="1">
          <mxGeometry relative="1" as="geometry" />
        </mxCell>
        <mxCell id="1A0tMCghKB87Aucakv52-89" style="edgeStyle=orthogonalEdgeStyle;rounded=0;orthogonalLoop=1;jettySize=auto;html=1;exitX=1;exitY=0.5;exitDx=0;exitDy=0;entryX=0;entryY=0.5;entryDx=0;entryDy=0;" parent="1" source="FeyKXLo_ERHVsop2b5ah-42" target="DF6Im1o867pRgb7h0c81-14" edge="1">
          <mxGeometry relative="1" as="geometry" />
        </mxCell>
        <mxCell id="1A0tMCghKB87Aucakv52-90" style="edgeStyle=orthogonalEdgeStyle;rounded=0;orthogonalLoop=1;jettySize=auto;html=1;exitX=1;exitY=0.5;exitDx=0;exitDy=0;entryX=0;entryY=0.5;entryDx=0;entryDy=0;" parent="1" source="FeyKXLo_ERHVsop2b5ah-42" target="DF6Im1o867pRgb7h0c81-15" edge="1">
          <mxGeometry relative="1" as="geometry" />
        </mxCell>
        <mxCell id="FeyKXLo_ERHVsop2b5ah-42" value="Режим &quot;Свой&quot;" style="rounded=1;whiteSpace=wrap;html=1;arcSize=22;" parent="1" vertex="1">
          <mxGeometry x="930" y="1584" width="120" height="40" as="geometry" />
        </mxCell>
        <mxCell id="FeyKXLo_ERHVsop2b5ah-92" value="Путь маршрута" style="rounded=1;whiteSpace=wrap;html=1;arcSize=22;" parent="1" vertex="1">
          <mxGeometry x="-827" y="2196" width="120" height="40" as="geometry" />
        </mxCell>
        <mxCell id="FeyKXLo_ERHVsop2b5ah-95" style="edgeStyle=orthogonalEdgeStyle;rounded=0;orthogonalLoop=1;jettySize=auto;html=1;exitX=0;exitY=0.5;exitDx=0;exitDy=0;entryX=1;entryY=0.5;entryDx=0;entryDy=0;" parent="1" source="FeyKXLo_ERHVsop2b5ah-94" target="b2LkbIaox0D1EInB-J6t-7" edge="1">
          <mxGeometry relative="1" as="geometry" />
        </mxCell>
        <mxCell id="FeyKXLo_ERHVsop2b5ah-96" style="edgeStyle=orthogonalEdgeStyle;rounded=0;orthogonalLoop=1;jettySize=auto;html=1;exitX=0;exitY=0.5;exitDx=0;exitDy=0;entryX=1;entryY=0.5;entryDx=0;entryDy=0;" parent="1" source="FeyKXLo_ERHVsop2b5ah-94" target="b2LkbIaox0D1EInB-J6t-8" edge="1">
          <mxGeometry relative="1" as="geometry" />
        </mxCell>
        <mxCell id="1A0tMCghKB87Aucakv52-18" style="edgeStyle=orthogonalEdgeStyle;rounded=0;orthogonalLoop=1;jettySize=auto;html=1;exitX=0;exitY=0.5;exitDx=0;exitDy=0;entryX=1;entryY=0.5;entryDx=0;entryDy=0;" parent="1" source="FeyKXLo_ERHVsop2b5ah-94" target="b2LkbIaox0D1EInB-J6t-9" edge="1">
          <mxGeometry relative="1" as="geometry" />
        </mxCell>
        <mxCell id="FeyKXLo_ERHVsop2b5ah-94" value="Изменение масштаба" style="rounded=1;whiteSpace=wrap;html=1;arcSize=22;" parent="1" vertex="1">
          <mxGeometry x="-657" y="1798" width="120" height="40" as="geometry" />
        </mxCell>
        <mxCell id="HTWnH7QY85rT5R6Oe7Ba-3" style="edgeStyle=orthogonalEdgeStyle;rounded=0;orthogonalLoop=1;jettySize=auto;html=1;exitX=1;exitY=0.5;exitDx=0;exitDy=0;entryX=0;entryY=0.5;entryDx=0;entryDy=0;" parent="1" source="FeyKXLo_ERHVsop2b5ah-108" target="HTWnH7QY85rT5R6Oe7Ba-1" edge="1">
          <mxGeometry relative="1" as="geometry" />
        </mxCell>
        <mxCell id="HTWnH7QY85rT5R6Oe7Ba-4" style="edgeStyle=orthogonalEdgeStyle;rounded=0;orthogonalLoop=1;jettySize=auto;html=1;exitX=1;exitY=0.5;exitDx=0;exitDy=0;entryX=0;entryY=0.5;entryDx=0;entryDy=0;" parent="1" source="FeyKXLo_ERHVsop2b5ah-108" target="HTWnH7QY85rT5R6Oe7Ba-2" edge="1">
          <mxGeometry relative="1" as="geometry" />
        </mxCell>
        <mxCell id="FeyKXLo_ERHVsop2b5ah-108" value="Ввод некорректных данных" style="rounded=1;whiteSpace=wrap;html=1;arcSize=22;" parent="1" vertex="1">
          <mxGeometry x="1220" y="130" width="120" height="40" as="geometry" />
        </mxCell>
        <mxCell id="FeyKXLo_ERHVsop2b5ah-112" style="edgeStyle=orthogonalEdgeStyle;rounded=0;orthogonalLoop=1;jettySize=auto;html=1;exitX=1;exitY=0.5;exitDx=0;exitDy=0;entryX=0;entryY=0.5;entryDx=0;entryDy=0;" parent="1" source="FeyKXLo_ERHVsop2b5ah-109" target="FeyKXLo_ERHVsop2b5ah-114" edge="1">
          <mxGeometry relative="1" as="geometry">
            <mxPoint x="1450" y="10" as="targetPoint" />
          </mxGeometry>
        </mxCell>
        <mxCell id="FeyKXLo_ERHVsop2b5ah-116" style="edgeStyle=orthogonalEdgeStyle;rounded=0;orthogonalLoop=1;jettySize=auto;html=1;exitX=1;exitY=0.5;exitDx=0;exitDy=0;entryX=0;entryY=0.5;entryDx=0;entryDy=0;" parent="1" source="FeyKXLo_ERHVsop2b5ah-109" target="FeyKXLo_ERHVsop2b5ah-115" edge="1">
          <mxGeometry relative="1" as="geometry" />
        </mxCell>
        <mxCell id="FeyKXLo_ERHVsop2b5ah-109" value="Ввод корректных данных" style="rounded=1;whiteSpace=wrap;html=1;arcSize=22;" parent="1" vertex="1">
          <mxGeometry x="1220" y="20" width="120" height="40" as="geometry" />
        </mxCell>
        <mxCell id="FeyKXLo_ERHVsop2b5ah-114" value="Отображение точки А на карте" style="rounded=1;whiteSpace=wrap;html=1;arcSize=22;" parent="1" vertex="1">
          <mxGeometry x="1450" y="10" width="120" height="40" as="geometry" />
        </mxCell>
        <mxCell id="FeyKXLo_ERHVsop2b5ah-115" value="&lt;font style=&quot;font-size: 11px;&quot;&gt;Отображение адреса в поле вводе &quot;Откуда&quot;&lt;/font&gt;" style="rounded=1;whiteSpace=wrap;html=1;arcSize=22;" parent="1" vertex="1">
          <mxGeometry x="1450" y="70" width="120" height="40" as="geometry" />
        </mxCell>
        <mxCell id="FeyKXLo_ERHVsop2b5ah-132" style="edgeStyle=orthogonalEdgeStyle;rounded=0;orthogonalLoop=1;jettySize=auto;html=1;exitX=1;exitY=0.5;exitDx=0;exitDy=0;entryX=0;entryY=0.5;entryDx=0;entryDy=0;" parent="1" source="FeyKXLo_ERHVsop2b5ah-122" target="FeyKXLo_ERHVsop2b5ah-128" edge="1">
          <mxGeometry relative="1" as="geometry" />
        </mxCell>
        <mxCell id="FeyKXLo_ERHVsop2b5ah-133" style="edgeStyle=orthogonalEdgeStyle;rounded=0;orthogonalLoop=1;jettySize=auto;html=1;exitX=1;exitY=0.5;exitDx=0;exitDy=0;entryX=0;entryY=0.5;entryDx=0;entryDy=0;" parent="1" source="FeyKXLo_ERHVsop2b5ah-122" target="FeyKXLo_ERHVsop2b5ah-129" edge="1">
          <mxGeometry relative="1" as="geometry" />
        </mxCell>
        <mxCell id="FeyKXLo_ERHVsop2b5ah-122" value="Ввод некорректных данных" style="rounded=1;whiteSpace=wrap;html=1;arcSize=22;" parent="1" vertex="1">
          <mxGeometry x="1220" y="400" width="120" height="40" as="geometry" />
        </mxCell>
        <mxCell id="FeyKXLo_ERHVsop2b5ah-130" style="edgeStyle=orthogonalEdgeStyle;rounded=0;orthogonalLoop=1;jettySize=auto;html=1;exitX=1;exitY=0.5;exitDx=0;exitDy=0;entryX=0;entryY=0.5;entryDx=0;entryDy=0;" parent="1" source="FeyKXLo_ERHVsop2b5ah-123" target="FeyKXLo_ERHVsop2b5ah-126" edge="1">
          <mxGeometry relative="1" as="geometry" />
        </mxCell>
        <mxCell id="FeyKXLo_ERHVsop2b5ah-131" style="edgeStyle=orthogonalEdgeStyle;rounded=0;orthogonalLoop=1;jettySize=auto;html=1;exitX=1;exitY=0.5;exitDx=0;exitDy=0;entryX=0;entryY=0.5;entryDx=0;entryDy=0;" parent="1" source="FeyKXLo_ERHVsop2b5ah-123" target="FeyKXLo_ERHVsop2b5ah-127" edge="1">
          <mxGeometry relative="1" as="geometry" />
        </mxCell>
        <mxCell id="FeyKXLo_ERHVsop2b5ah-123" value="Ввод корректных данных:&amp;nbsp;" style="rounded=1;whiteSpace=wrap;html=1;arcSize=22;" parent="1" vertex="1">
          <mxGeometry x="1220" y="280" width="120" height="40" as="geometry" />
        </mxCell>
        <mxCell id="FeyKXLo_ERHVsop2b5ah-126" value="Отображение точки B на карте" style="rounded=1;whiteSpace=wrap;html=1;arcSize=22;" parent="1" vertex="1">
          <mxGeometry x="1450" y="260" width="120" height="40" as="geometry" />
        </mxCell>
        <mxCell id="FeyKXLo_ERHVsop2b5ah-127" value="&lt;font style=&quot;font-size: 11px;&quot;&gt;Отображение адреса в поле вводе &quot;Куда&quot;&lt;/font&gt;" style="rounded=1;whiteSpace=wrap;html=1;arcSize=22;" parent="1" vertex="1">
          <mxGeometry x="1450" y="320" width="120" height="40" as="geometry" />
        </mxCell>
        <mxCell id="FeyKXLo_ERHVsop2b5ah-128" value="&lt;font style=&quot;font-size: 9px;&quot;&gt;Вывод ошибки &quot;Вы ввели некорректный адрес&quot;&lt;/font&gt;" style="rounded=1;whiteSpace=wrap;html=1;arcSize=22;" parent="1" vertex="1">
          <mxGeometry x="1450" y="380" width="120" height="40" as="geometry" />
        </mxCell>
        <mxCell id="FeyKXLo_ERHVsop2b5ah-129" value="&lt;font style=&quot;font-size: 10px;&quot;&gt;Поле ввода подсвечивается красным&lt;/font&gt;" style="rounded=1;whiteSpace=wrap;html=1;arcSize=22;" parent="1" vertex="1">
          <mxGeometry x="1450" y="450" width="120" height="40" as="geometry" />
        </mxCell>
        <mxCell id="FeyKXLo_ERHVsop2b5ah-144" style="edgeStyle=orthogonalEdgeStyle;rounded=0;orthogonalLoop=1;jettySize=auto;html=1;exitX=1;exitY=0.5;exitDx=0;exitDy=0;entryX=0;entryY=0.5;entryDx=0;entryDy=0;" parent="1" source="FeyKXLo_ERHVsop2b5ah-138" target="FeyKXLo_ERHVsop2b5ah-142" edge="1">
          <mxGeometry relative="1" as="geometry" />
        </mxCell>
        <mxCell id="FeyKXLo_ERHVsop2b5ah-138" value="Ввод корректных данных" style="rounded=1;whiteSpace=wrap;html=1;arcSize=22;" parent="1" vertex="1">
          <mxGeometry x="1220" y="550" width="120" height="40" as="geometry" />
        </mxCell>
        <mxCell id="FeyKXLo_ERHVsop2b5ah-148" style="edgeStyle=orthogonalEdgeStyle;rounded=0;orthogonalLoop=1;jettySize=auto;html=1;exitX=1;exitY=0.5;exitDx=0;exitDy=0;entryX=0;entryY=0.5;entryDx=0;entryDy=0;" parent="1" source="FeyKXLo_ERHVsop2b5ah-139" target="FeyKXLo_ERHVsop2b5ah-146" edge="1">
          <mxGeometry relative="1" as="geometry" />
        </mxCell>
        <mxCell id="FeyKXLo_ERHVsop2b5ah-149" style="edgeStyle=orthogonalEdgeStyle;rounded=0;orthogonalLoop=1;jettySize=auto;html=1;exitX=1;exitY=0.5;exitDx=0;exitDy=0;entryX=0;entryY=0.5;entryDx=0;entryDy=0;" parent="1" source="FeyKXLo_ERHVsop2b5ah-139" target="FeyKXLo_ERHVsop2b5ah-147" edge="1">
          <mxGeometry relative="1" as="geometry" />
        </mxCell>
        <mxCell id="FeyKXLo_ERHVsop2b5ah-139" value="Ввод некорректных данных" style="rounded=1;whiteSpace=wrap;html=1;arcSize=22;" parent="1" vertex="1">
          <mxGeometry x="1220" y="700" width="120" height="40" as="geometry" />
        </mxCell>
        <mxCell id="FeyKXLo_ERHVsop2b5ah-142" value="&lt;font style=&quot;font-size: 10px;&quot;&gt;Отображение двухзначного числа в поле ввода &quot;Часы&quot;&lt;/font&gt;" style="rounded=1;whiteSpace=wrap;html=1;arcSize=22;" parent="1" vertex="1">
          <mxGeometry x="1450" y="550" width="120" height="40" as="geometry" />
        </mxCell>
        <mxCell id="FeyKXLo_ERHVsop2b5ah-146" value="&lt;font style=&quot;font-size: 10px;&quot;&gt;Поле ввода подсвечивается красным&lt;/font&gt;" style="rounded=1;whiteSpace=wrap;html=1;arcSize=22;" parent="1" vertex="1">
          <mxGeometry x="1450" y="670" width="120" height="40" as="geometry" />
        </mxCell>
        <mxCell id="FeyKXLo_ERHVsop2b5ah-147" value="&lt;font style=&quot;font-size: 10px;&quot;&gt;Вывод ошибки&amp;nbsp;&quot;Вы ввели некорректное время&quot;.&lt;/font&gt;" style="rounded=1;whiteSpace=wrap;html=1;arcSize=22;" parent="1" vertex="1">
          <mxGeometry x="1450" y="740" width="120" height="40" as="geometry" />
        </mxCell>
        <mxCell id="FeyKXLo_ERHVsop2b5ah-164" style="edgeStyle=orthogonalEdgeStyle;rounded=0;orthogonalLoop=1;jettySize=auto;html=1;exitX=1;exitY=0.5;exitDx=0;exitDy=0;entryX=0;entryY=0.5;entryDx=0;entryDy=0;" parent="1" source="FeyKXLo_ERHVsop2b5ah-166" target="FeyKXLo_ERHVsop2b5ah-170" edge="1">
          <mxGeometry relative="1" as="geometry" />
        </mxCell>
        <mxCell id="FeyKXLo_ERHVsop2b5ah-166" value="Ввод корректных данных" style="rounded=1;whiteSpace=wrap;html=1;arcSize=22;" parent="1" vertex="1">
          <mxGeometry x="1220" y="845" width="120" height="40" as="geometry" />
        </mxCell>
        <mxCell id="FeyKXLo_ERHVsop2b5ah-167" style="edgeStyle=orthogonalEdgeStyle;rounded=0;orthogonalLoop=1;jettySize=auto;html=1;exitX=1;exitY=0.5;exitDx=0;exitDy=0;entryX=0;entryY=0.5;entryDx=0;entryDy=0;" parent="1" source="FeyKXLo_ERHVsop2b5ah-169" target="FeyKXLo_ERHVsop2b5ah-172" edge="1">
          <mxGeometry relative="1" as="geometry" />
        </mxCell>
        <mxCell id="FeyKXLo_ERHVsop2b5ah-168" style="edgeStyle=orthogonalEdgeStyle;rounded=0;orthogonalLoop=1;jettySize=auto;html=1;exitX=1;exitY=0.5;exitDx=0;exitDy=0;entryX=0;entryY=0.5;entryDx=0;entryDy=0;" parent="1" source="FeyKXLo_ERHVsop2b5ah-169" target="FeyKXLo_ERHVsop2b5ah-173" edge="1">
          <mxGeometry relative="1" as="geometry" />
        </mxCell>
        <mxCell id="FeyKXLo_ERHVsop2b5ah-169" value="Ввод некорректных данных" style="rounded=1;whiteSpace=wrap;html=1;arcSize=22;" parent="1" vertex="1">
          <mxGeometry x="1220" y="995" width="120" height="40" as="geometry" />
        </mxCell>
        <mxCell id="FeyKXLo_ERHVsop2b5ah-170" value="&lt;font style=&quot;font-size: 10px;&quot;&gt;Отображение двухзначного числа в поле ввода &quot;Минуты&quot;&lt;/font&gt;" style="rounded=1;whiteSpace=wrap;html=1;arcSize=22;" parent="1" vertex="1">
          <mxGeometry x="1450" y="845" width="120" height="40" as="geometry" />
        </mxCell>
        <mxCell id="FeyKXLo_ERHVsop2b5ah-172" value="&lt;font style=&quot;font-size: 10px;&quot;&gt;Поле ввода подсвечивается красным&lt;/font&gt;" style="rounded=1;whiteSpace=wrap;html=1;arcSize=22;" parent="1" vertex="1">
          <mxGeometry x="1450" y="965" width="120" height="40" as="geometry" />
        </mxCell>
        <mxCell id="FeyKXLo_ERHVsop2b5ah-173" value="&lt;font style=&quot;font-size: 10px;&quot;&gt;Вывод ошибки&amp;nbsp;&quot;Вы ввели некорректное время&quot;.&lt;/font&gt;" style="rounded=1;whiteSpace=wrap;html=1;arcSize=22;" parent="1" vertex="1">
          <mxGeometry x="1450" y="1035" width="120" height="40" as="geometry" />
        </mxCell>
        <mxCell id="DF6Im1o867pRgb7h0c81-28" style="edgeStyle=orthogonalEdgeStyle;rounded=0;orthogonalLoop=1;jettySize=auto;html=1;exitX=1;exitY=0.5;exitDx=0;exitDy=0;entryX=0;entryY=0.5;entryDx=0;entryDy=0;" parent="1" source="DF6Im1o867pRgb7h0c81-10" target="DF6Im1o867pRgb7h0c81-22" edge="1">
          <mxGeometry relative="1" as="geometry" />
        </mxCell>
        <mxCell id="DF6Im1o867pRgb7h0c81-29" style="edgeStyle=orthogonalEdgeStyle;rounded=0;orthogonalLoop=1;jettySize=auto;html=1;exitX=1;exitY=0.5;exitDx=0;exitDy=0;entryX=0;entryY=0.5;entryDx=0;entryDy=0;" parent="1" source="DF6Im1o867pRgb7h0c81-10" target="DF6Im1o867pRgb7h0c81-23" edge="1">
          <mxGeometry relative="1" as="geometry" />
        </mxCell>
        <mxCell id="1A0tMCghKB87Aucakv52-45" style="edgeStyle=orthogonalEdgeStyle;rounded=0;orthogonalLoop=1;jettySize=auto;html=1;exitX=1;exitY=0.5;exitDx=0;exitDy=0;entryX=0;entryY=0.5;entryDx=0;entryDy=0;" parent="1" source="DF6Im1o867pRgb7h0c81-10" target="1A0tMCghKB87Aucakv52-44" edge="1">
          <mxGeometry relative="1" as="geometry" />
        </mxCell>
        <mxCell id="DF6Im1o867pRgb7h0c81-10" value="Свой автомобиль" style="rounded=1;whiteSpace=wrap;html=1;arcSize=22;" parent="1" vertex="1">
          <mxGeometry x="1390" y="1481" width="120" height="40" as="geometry" />
        </mxCell>
        <mxCell id="DF6Im1o867pRgb7h0c81-30" style="edgeStyle=orthogonalEdgeStyle;rounded=0;orthogonalLoop=1;jettySize=auto;html=1;exitX=1;exitY=0.5;exitDx=0;exitDy=0;entryX=0;entryY=0.5;entryDx=0;entryDy=0;" parent="1" source="DF6Im1o867pRgb7h0c81-11" target="DF6Im1o867pRgb7h0c81-26" edge="1">
          <mxGeometry relative="1" as="geometry" />
        </mxCell>
        <mxCell id="DF6Im1o867pRgb7h0c81-32" style="edgeStyle=orthogonalEdgeStyle;rounded=0;orthogonalLoop=1;jettySize=auto;html=1;exitX=1;exitY=0.5;exitDx=0;exitDy=0;entryX=0;entryY=0.5;entryDx=0;entryDy=0;" parent="1" source="DF6Im1o867pRgb7h0c81-11" target="DF6Im1o867pRgb7h0c81-27" edge="1">
          <mxGeometry relative="1" as="geometry" />
        </mxCell>
        <mxCell id="1A0tMCghKB87Aucakv52-47" style="edgeStyle=orthogonalEdgeStyle;rounded=0;orthogonalLoop=1;jettySize=auto;html=1;exitX=1;exitY=0.5;exitDx=0;exitDy=0;entryX=0;entryY=0.5;entryDx=0;entryDy=0;" parent="1" source="DF6Im1o867pRgb7h0c81-11" target="1A0tMCghKB87Aucakv52-46" edge="1">
          <mxGeometry relative="1" as="geometry" />
        </mxCell>
        <mxCell id="DF6Im1o867pRgb7h0c81-11" value="Каршеринг" style="rounded=1;whiteSpace=wrap;html=1;arcSize=22;" parent="1" vertex="1">
          <mxGeometry x="1390" y="1605" width="120" height="40" as="geometry" />
        </mxCell>
        <mxCell id="DF6Im1o867pRgb7h0c81-35" style="edgeStyle=orthogonalEdgeStyle;rounded=0;orthogonalLoop=1;jettySize=auto;html=1;exitX=1;exitY=0.5;exitDx=0;exitDy=0;entryX=0;entryY=0.5;entryDx=0;entryDy=0;" parent="1" source="DF6Im1o867pRgb7h0c81-12" target="DF6Im1o867pRgb7h0c81-33" edge="1">
          <mxGeometry relative="1" as="geometry" />
        </mxCell>
        <mxCell id="DF6Im1o867pRgb7h0c81-36" style="edgeStyle=orthogonalEdgeStyle;rounded=0;orthogonalLoop=1;jettySize=auto;html=1;exitX=1;exitY=0.5;exitDx=0;exitDy=0;entryX=0;entryY=0.5;entryDx=0;entryDy=0;" parent="1" source="DF6Im1o867pRgb7h0c81-12" target="DF6Im1o867pRgb7h0c81-34" edge="1">
          <mxGeometry relative="1" as="geometry" />
        </mxCell>
        <mxCell id="DF6Im1o867pRgb7h0c81-51" style="edgeStyle=orthogonalEdgeStyle;rounded=0;orthogonalLoop=1;jettySize=auto;html=1;exitX=1;exitY=0.5;exitDx=0;exitDy=0;entryX=0;entryY=0.5;entryDx=0;entryDy=0;" parent="1" source="DF6Im1o867pRgb7h0c81-12" target="DF6Im1o867pRgb7h0c81-49" edge="1">
          <mxGeometry relative="1" as="geometry" />
        </mxCell>
        <mxCell id="1A0tMCghKB87Aucakv52-50" style="edgeStyle=orthogonalEdgeStyle;rounded=0;orthogonalLoop=1;jettySize=auto;html=1;exitX=1;exitY=0.5;exitDx=0;exitDy=0;entryX=0;entryY=0.5;entryDx=0;entryDy=0;" parent="1" source="DF6Im1o867pRgb7h0c81-12" target="1A0tMCghKB87Aucakv52-48" edge="1">
          <mxGeometry relative="1" as="geometry" />
        </mxCell>
        <mxCell id="1A0tMCghKB87Aucakv52-55" style="edgeStyle=orthogonalEdgeStyle;rounded=0;orthogonalLoop=1;jettySize=auto;html=1;exitX=1;exitY=0.5;exitDx=0;exitDy=0;entryX=-0.004;entryY=0.567;entryDx=0;entryDy=0;entryPerimeter=0;" parent="1" source="DF6Im1o867pRgb7h0c81-12" target="1A0tMCghKB87Aucakv52-53" edge="1">
          <mxGeometry relative="1" as="geometry" />
        </mxCell>
        <mxCell id="DF6Im1o867pRgb7h0c81-12" value="Такси" style="rounded=1;whiteSpace=wrap;html=1;arcSize=22;" parent="1" vertex="1">
          <mxGeometry x="1390" y="1734" width="120" height="40" as="geometry" />
        </mxCell>
        <mxCell id="P7dyfhE9Dig31UeO6kvW-4" style="edgeStyle=orthogonalEdgeStyle;rounded=0;orthogonalLoop=1;jettySize=auto;html=1;exitX=1;exitY=0.5;exitDx=0;exitDy=0;entryX=0;entryY=0.5;entryDx=0;entryDy=0;" parent="1" source="DF6Im1o867pRgb7h0c81-13" target="P7dyfhE9Dig31UeO6kvW-1" edge="1">
          <mxGeometry relative="1" as="geometry" />
        </mxCell>
        <mxCell id="1A0tMCghKB87Aucakv52-49" style="edgeStyle=orthogonalEdgeStyle;rounded=0;orthogonalLoop=1;jettySize=auto;html=1;exitX=1;exitY=0.5;exitDx=0;exitDy=0;" parent="1" source="DF6Im1o867pRgb7h0c81-13" target="DF6Im1o867pRgb7h0c81-38" edge="1">
          <mxGeometry relative="1" as="geometry" />
        </mxCell>
        <mxCell id="1A0tMCghKB87Aucakv52-58" style="edgeStyle=orthogonalEdgeStyle;rounded=0;orthogonalLoop=1;jettySize=auto;html=1;exitX=1;exitY=0.5;exitDx=0;exitDy=0;entryX=0;entryY=0.5;entryDx=0;entryDy=0;" parent="1" source="DF6Im1o867pRgb7h0c81-13" target="1A0tMCghKB87Aucakv52-57" edge="1">
          <mxGeometry relative="1" as="geometry" />
        </mxCell>
        <mxCell id="DF6Im1o867pRgb7h0c81-13" value="Шеринг самокатов" style="rounded=1;whiteSpace=wrap;html=1;arcSize=22;" parent="1" vertex="1">
          <mxGeometry x="1390" y="1983" width="120" height="40" as="geometry" />
        </mxCell>
        <mxCell id="DF6Im1o867pRgb7h0c81-46" style="edgeStyle=orthogonalEdgeStyle;rounded=0;orthogonalLoop=1;jettySize=auto;html=1;exitX=1;exitY=0.5;exitDx=0;exitDy=0;entryX=0;entryY=0.5;entryDx=0;entryDy=0;" parent="1" source="DF6Im1o867pRgb7h0c81-14" target="DF6Im1o867pRgb7h0c81-40" edge="1">
          <mxGeometry relative="1" as="geometry" />
        </mxCell>
        <mxCell id="P7dyfhE9Dig31UeO6kvW-3" style="edgeStyle=orthogonalEdgeStyle;rounded=0;orthogonalLoop=1;jettySize=auto;html=1;exitX=1;exitY=0.5;exitDx=0;exitDy=0;entryX=0;entryY=0.5;entryDx=0;entryDy=0;" parent="1" source="DF6Im1o867pRgb7h0c81-14" target="P7dyfhE9Dig31UeO6kvW-2" edge="1">
          <mxGeometry relative="1" as="geometry" />
        </mxCell>
        <mxCell id="1A0tMCghKB87Aucakv52-60" style="edgeStyle=orthogonalEdgeStyle;rounded=0;orthogonalLoop=1;jettySize=auto;html=1;exitX=1;exitY=0.5;exitDx=0;exitDy=0;entryX=0;entryY=0.5;entryDx=0;entryDy=0;" parent="1" source="DF6Im1o867pRgb7h0c81-14" target="1A0tMCghKB87Aucakv52-59" edge="1">
          <mxGeometry relative="1" as="geometry" />
        </mxCell>
        <mxCell id="DF6Im1o867pRgb7h0c81-14" value="Шеринг велосипедов" style="rounded=1;whiteSpace=wrap;html=1;arcSize=22;" parent="1" vertex="1">
          <mxGeometry x="1390" y="2145" width="120" height="40" as="geometry" />
        </mxCell>
        <mxCell id="DF6Im1o867pRgb7h0c81-48" style="edgeStyle=orthogonalEdgeStyle;rounded=0;orthogonalLoop=1;jettySize=auto;html=1;exitX=1;exitY=0.5;exitDx=0;exitDy=0;entryX=0;entryY=0.5;entryDx=0;entryDy=0;" parent="1" source="DF6Im1o867pRgb7h0c81-15" target="DF6Im1o867pRgb7h0c81-42" edge="1">
          <mxGeometry relative="1" as="geometry" />
        </mxCell>
        <mxCell id="1A0tMCghKB87Aucakv52-63" style="edgeStyle=orthogonalEdgeStyle;rounded=0;orthogonalLoop=1;jettySize=auto;html=1;exitX=1;exitY=0.5;exitDx=0;exitDy=0;entryX=0;entryY=0.5;entryDx=0;entryDy=0;" parent="1" source="DF6Im1o867pRgb7h0c81-15" target="1A0tMCghKB87Aucakv52-62" edge="1">
          <mxGeometry relative="1" as="geometry" />
        </mxCell>
        <mxCell id="1A0tMCghKB87Aucakv52-64" style="edgeStyle=orthogonalEdgeStyle;rounded=0;orthogonalLoop=1;jettySize=auto;html=1;exitX=1;exitY=0.5;exitDx=0;exitDy=0;entryX=0;entryY=0.5;entryDx=0;entryDy=0;" parent="1" source="DF6Im1o867pRgb7h0c81-15" target="1A0tMCghKB87Aucakv52-61" edge="1">
          <mxGeometry relative="1" as="geometry" />
        </mxCell>
        <mxCell id="DF6Im1o867pRgb7h0c81-15" value="Пешком" style="rounded=1;whiteSpace=wrap;html=1;arcSize=22;" parent="1" vertex="1">
          <mxGeometry x="1390" y="2279" width="120" height="40" as="geometry" />
        </mxCell>
        <mxCell id="DF6Im1o867pRgb7h0c81-22" value="&lt;font style=&quot;font-size: 8px;&quot;&gt;Вывод стоимости поездки&lt;/font&gt;" style="rounded=1;whiteSpace=wrap;html=1;arcSize=22;" parent="1" vertex="1">
          <mxGeometry x="1550" y="1450" width="80" height="35" as="geometry" />
        </mxCell>
        <mxCell id="DF6Im1o867pRgb7h0c81-23" value="&lt;font style=&quot;font-size: 8px;&quot;&gt;Вывод времени в пути&lt;/font&gt;" style="rounded=1;whiteSpace=wrap;html=1;arcSize=22;" parent="1" vertex="1">
          <mxGeometry x="1550" y="1491" width="80" height="30" as="geometry" />
        </mxCell>
        <mxCell id="DF6Im1o867pRgb7h0c81-26" value="&lt;font style=&quot;font-size: 8px;&quot;&gt;Вывод стоимости поездки&lt;/font&gt;" style="rounded=1;whiteSpace=wrap;html=1;arcSize=22;" parent="1" vertex="1">
          <mxGeometry x="1550" y="1589" width="80" height="35" as="geometry" />
        </mxCell>
        <mxCell id="DF6Im1o867pRgb7h0c81-27" value="&lt;font style=&quot;font-size: 8px;&quot;&gt;Вывод времени в пути&lt;/font&gt;" style="rounded=1;whiteSpace=wrap;html=1;arcSize=22;" parent="1" vertex="1">
          <mxGeometry x="1550" y="1630" width="80" height="30" as="geometry" />
        </mxCell>
        <mxCell id="DF6Im1o867pRgb7h0c81-33" value="&lt;font style=&quot;font-size: 8px;&quot;&gt;Вывод стоимости поездки&lt;/font&gt;" style="rounded=1;whiteSpace=wrap;html=1;arcSize=22;" parent="1" vertex="1">
          <mxGeometry x="1550" y="1724" width="80" height="35" as="geometry" />
        </mxCell>
        <mxCell id="DF6Im1o867pRgb7h0c81-34" value="&lt;font style=&quot;font-size: 8px;&quot;&gt;Вывод времени в пути&lt;/font&gt;" style="rounded=1;whiteSpace=wrap;html=1;arcSize=22;" parent="1" vertex="1">
          <mxGeometry x="1550" y="1765" width="80" height="30" as="geometry" />
        </mxCell>
        <mxCell id="DF6Im1o867pRgb7h0c81-38" value="&lt;font style=&quot;font-size: 8px;&quot;&gt;Вывод времени в пути&lt;/font&gt;" style="rounded=1;whiteSpace=wrap;html=1;arcSize=22;" parent="1" vertex="1">
          <mxGeometry x="1550" y="1979" width="80" height="30" as="geometry" />
        </mxCell>
        <mxCell id="DF6Im1o867pRgb7h0c81-40" value="&lt;font style=&quot;font-size: 8px;&quot;&gt;Вывод времени в пути&lt;/font&gt;" style="rounded=1;whiteSpace=wrap;html=1;arcSize=22;" parent="1" vertex="1">
          <mxGeometry x="1550" y="2115" width="80" height="30" as="geometry" />
        </mxCell>
        <mxCell id="DF6Im1o867pRgb7h0c81-42" value="&lt;font style=&quot;font-size: 8px;&quot;&gt;Вывод времени в пути&lt;/font&gt;" style="rounded=1;whiteSpace=wrap;html=1;arcSize=22;" parent="1" vertex="1">
          <mxGeometry x="1550" y="2257" width="80" height="30" as="geometry" />
        </mxCell>
        <mxCell id="DF6Im1o867pRgb7h0c81-49" value="&lt;span style=&quot;font-size: 8px;&quot;&gt;Кнопка вызова такси&lt;/span&gt;" style="rounded=1;whiteSpace=wrap;html=1;arcSize=22;" parent="1" vertex="1">
          <mxGeometry x="1550" y="1803" width="80" height="30" as="geometry" />
        </mxCell>
        <mxCell id="DF6Im1o867pRgb7h0c81-85" value="Отображение времени в пути" style="rounded=1;whiteSpace=wrap;html=1;arcSize=22;" parent="1" vertex="1">
          <mxGeometry x="-427" y="1432" width="120" height="40" as="geometry" />
        </mxCell>
        <mxCell id="DF6Im1o867pRgb7h0c81-87" value="Отображение стоимости поездки" style="rounded=1;whiteSpace=wrap;html=1;arcSize=22;" parent="1" vertex="1">
          <mxGeometry x="-427" y="1480" width="120" height="40" as="geometry" />
        </mxCell>
        <mxCell id="z40Iqxck2a3rIB7Wj1cB-5" value="Расчёт времени в пути: расстояние / средняя скорость для каждого транспорта * 60 минут" style="rounded=1;whiteSpace=wrap;html=1;arcSize=22;" parent="1" vertex="1">
          <mxGeometry x="905" y="2360" width="158.5" height="110" as="geometry" />
        </mxCell>
        <mxCell id="P5Mt6lCAIPkF4njqv7vm-1" value="Автоматический выбор транспорта" style="rounded=1;whiteSpace=wrap;html=1;arcSize=22;" parent="1" vertex="1">
          <mxGeometry x="1090" y="1070" width="120" height="40" as="geometry" />
        </mxCell>
        <mxCell id="P5Mt6lCAIPkF4njqv7vm-2" value="Построение маршрута" style="rounded=1;whiteSpace=wrap;html=1;arcSize=22;" parent="1" vertex="1">
          <mxGeometry x="1090" y="1120" width="120" height="40" as="geometry" />
        </mxCell>
        <mxCell id="P5Mt6lCAIPkF4njqv7vm-3" value="Отображение времени поездки" style="rounded=1;whiteSpace=wrap;html=1;arcSize=22;" parent="1" vertex="1">
          <mxGeometry x="1090" y="1170" width="120" height="40" as="geometry" />
        </mxCell>
        <mxCell id="P5Mt6lCAIPkF4njqv7vm-4" value="Отображение стоимости поездки" style="rounded=1;whiteSpace=wrap;html=1;arcSize=22;" parent="1" vertex="1">
          <mxGeometry x="1090" y="1220" width="120" height="40" as="geometry" />
        </mxCell>
        <mxCell id="8ylpdoqKV9zqvuCdrpWe-1" value="Автоматический выбор транспорта" style="rounded=1;whiteSpace=wrap;html=1;arcSize=22;" parent="1" vertex="1">
          <mxGeometry x="1090" y="1280" width="120" height="40" as="geometry" />
        </mxCell>
        <mxCell id="8ylpdoqKV9zqvuCdrpWe-2" value="Построение маршрута" style="rounded=1;whiteSpace=wrap;html=1;arcSize=22;" parent="1" vertex="1">
          <mxGeometry x="1090" y="1330" width="120" height="40" as="geometry" />
        </mxCell>
        <mxCell id="8ylpdoqKV9zqvuCdrpWe-3" value="Отображение времени поездки" style="rounded=1;whiteSpace=wrap;html=1;arcSize=22;" parent="1" vertex="1">
          <mxGeometry x="1090" y="1380" width="120" height="40" as="geometry" />
        </mxCell>
        <mxCell id="8ylpdoqKV9zqvuCdrpWe-4" value="Отображение стоимости поездки" style="rounded=1;whiteSpace=wrap;html=1;arcSize=22;" parent="1" vertex="1">
          <mxGeometry x="1090" y="1430" width="120" height="40" as="geometry" />
        </mxCell>
        <mxCell id="HTWnH7QY85rT5R6Oe7Ba-1" value="&lt;font style=&quot;font-size: 9px;&quot;&gt;Вывод ошибки &quot;Вы ввели некорректный адрес&quot;&lt;/font&gt;" style="rounded=1;whiteSpace=wrap;html=1;arcSize=22;" parent="1" vertex="1">
          <mxGeometry x="1450" y="130" width="120" height="40" as="geometry" />
        </mxCell>
        <mxCell id="HTWnH7QY85rT5R6Oe7Ba-2" value="&lt;font style=&quot;font-size: 10px;&quot;&gt;Поле ввода подсвечивается красным&lt;/font&gt;" style="rounded=1;whiteSpace=wrap;html=1;arcSize=22;" parent="1" vertex="1">
          <mxGeometry x="1450" y="190" width="120" height="40" as="geometry" />
        </mxCell>
        <mxCell id="P7dyfhE9Dig31UeO6kvW-1" value="&lt;font style=&quot;font-size: 8px;&quot;&gt;Вывод стоимости поездки&lt;/font&gt;" style="rounded=1;whiteSpace=wrap;html=1;arcSize=22;" parent="1" vertex="1">
          <mxGeometry x="1550" y="2023" width="80" height="35" as="geometry" />
        </mxCell>
        <mxCell id="P7dyfhE9Dig31UeO6kvW-2" value="&lt;font style=&quot;font-size: 8px;&quot;&gt;Вывод стоимости поездки&lt;/font&gt;" style="rounded=1;whiteSpace=wrap;html=1;arcSize=22;" parent="1" vertex="1">
          <mxGeometry x="1550" y="2165" width="80" height="35" as="geometry" />
        </mxCell>
        <mxCell id="1A0tMCghKB87Aucakv52-17" value="© Яндекс&amp;nbsp;" style="rounded=1;whiteSpace=wrap;html=1;arcSize=22;" parent="1" vertex="1">
          <mxGeometry x="-657" y="1928" width="120" height="40" as="geometry" />
        </mxCell>
        <mxCell id="1A0tMCghKB87Aucakv52-27" style="edgeStyle=orthogonalEdgeStyle;rounded=0;orthogonalLoop=1;jettySize=auto;html=1;exitX=0;exitY=0.5;exitDx=0;exitDy=0;entryX=1;entryY=0.5;entryDx=0;entryDy=0;" parent="1" source="1A0tMCghKB87Aucakv52-20" target="DF6Im1o867pRgb7h0c81-85" edge="1">
          <mxGeometry relative="1" as="geometry" />
        </mxCell>
        <mxCell id="1A0tMCghKB87Aucakv52-28" style="edgeStyle=orthogonalEdgeStyle;rounded=0;orthogonalLoop=1;jettySize=auto;html=1;exitX=0;exitY=0.5;exitDx=0;exitDy=0;entryX=1;entryY=0.5;entryDx=0;entryDy=0;" parent="1" source="1A0tMCghKB87Aucakv52-20" target="DF6Im1o867pRgb7h0c81-87" edge="1">
          <mxGeometry relative="1" as="geometry" />
        </mxCell>
        <mxCell id="1A0tMCghKB87Aucakv52-29" style="edgeStyle=orthogonalEdgeStyle;rounded=0;orthogonalLoop=1;jettySize=auto;html=1;exitX=0;exitY=0.5;exitDx=0;exitDy=0;entryX=1;entryY=0.5;entryDx=0;entryDy=0;" parent="1" source="1A0tMCghKB87Aucakv52-20" target="1A0tMCghKB87Aucakv52-25" edge="1">
          <mxGeometry relative="1" as="geometry" />
        </mxCell>
        <mxCell id="1A0tMCghKB87Aucakv52-30" style="edgeStyle=orthogonalEdgeStyle;rounded=0;orthogonalLoop=1;jettySize=auto;html=1;exitX=0;exitY=0.5;exitDx=0;exitDy=0;entryX=1;entryY=0.5;entryDx=0;entryDy=0;" parent="1" source="1A0tMCghKB87Aucakv52-20" target="1A0tMCghKB87Aucakv52-26" edge="1">
          <mxGeometry relative="1" as="geometry" />
        </mxCell>
        <mxCell id="1A0tMCghKB87Aucakv52-20" value="Панель вывода информации" style="rounded=1;whiteSpace=wrap;html=1;arcSize=22;" parent="1" vertex="1">
          <mxGeometry x="-90" y="1456" width="120" height="40" as="geometry" />
        </mxCell>
        <mxCell id="1A0tMCghKB87Aucakv52-25" value="Кнопка вызова такси (для вида транспорта такси)" style="rounded=1;whiteSpace=wrap;html=1;arcSize=22;" parent="1" vertex="1">
          <mxGeometry x="-427" y="1538" width="120" height="40" as="geometry" />
        </mxCell>
        <mxCell id="1A0tMCghKB87Aucakv52-26" value="Картинка с автомобилем такси (для вида транспорта такси)" style="rounded=1;whiteSpace=wrap;html=1;arcSize=22;" parent="1" vertex="1">
          <mxGeometry x="-427" y="1591" width="120" height="79" as="geometry" />
        </mxCell>
        <mxCell id="1A0tMCghKB87Aucakv52-44" value="&lt;font style=&quot;font-size: 8px;&quot;&gt;Построение маршрута на карте&lt;/font&gt;" style="rounded=1;whiteSpace=wrap;html=1;arcSize=22;" parent="1" vertex="1">
          <mxGeometry x="1550" y="1529" width="80" height="30" as="geometry" />
        </mxCell>
        <mxCell id="1A0tMCghKB87Aucakv52-46" value="&lt;font style=&quot;font-size: 8px;&quot;&gt;Построение маршрута на карте&lt;/font&gt;" style="rounded=1;whiteSpace=wrap;html=1;arcSize=22;" parent="1" vertex="1">
          <mxGeometry x="1550" y="1667" width="80" height="30" as="geometry" />
        </mxCell>
        <mxCell id="1A0tMCghKB87Aucakv52-48" value="&lt;font style=&quot;font-size: 8px;&quot;&gt;Построение маршрута на карте&lt;/font&gt;" style="rounded=1;whiteSpace=wrap;html=1;arcSize=22;" parent="1" vertex="1">
          <mxGeometry x="1550" y="1924" width="80" height="30" as="geometry" />
        </mxCell>
        <mxCell id="1A0tMCghKB87Aucakv52-53" value="&lt;font style=&quot;font-size: 8px;&quot;&gt;Картинка с автомобилем такси (для вида транспорта такси)&lt;/font&gt;" style="rounded=1;whiteSpace=wrap;html=1;arcSize=22;" parent="1" vertex="1">
          <mxGeometry x="1550" y="1849" width="90" height="59" as="geometry" />
        </mxCell>
        <mxCell id="1A0tMCghKB87Aucakv52-57" value="&lt;font style=&quot;font-size: 8px;&quot;&gt;Построение маршрута на карте&lt;/font&gt;" style="rounded=1;whiteSpace=wrap;html=1;arcSize=22;" parent="1" vertex="1">
          <mxGeometry x="1550" y="2069" width="80" height="30" as="geometry" />
        </mxCell>
        <mxCell id="1A0tMCghKB87Aucakv52-59" value="&lt;font style=&quot;font-size: 8px;&quot;&gt;Построение маршрута на карте&lt;/font&gt;" style="rounded=1;whiteSpace=wrap;html=1;arcSize=22;" parent="1" vertex="1">
          <mxGeometry x="1550" y="2219" width="80" height="30" as="geometry" />
        </mxCell>
        <mxCell id="1A0tMCghKB87Aucakv52-61" value="&lt;font style=&quot;font-size: 8px;&quot;&gt;Построение маршрута на карте&lt;/font&gt;" style="rounded=1;whiteSpace=wrap;html=1;arcSize=22;" parent="1" vertex="1">
          <mxGeometry x="1550" y="2349" width="80" height="30" as="geometry" />
        </mxCell>
        <mxCell id="1A0tMCghKB87Aucakv52-62" value="&lt;font style=&quot;font-size: 8px;&quot;&gt;Вывод стоимости поездки&lt;/font&gt;" style="rounded=1;whiteSpace=wrap;html=1;arcSize=22;" parent="1" vertex="1">
          <mxGeometry x="1550" y="2299" width="80" height="35" as="geometry" />
        </mxCell>
        <mxCell id="1A0tMCghKB87Aucakv52-67" style="edgeStyle=orthogonalEdgeStyle;rounded=0;orthogonalLoop=1;jettySize=auto;html=1;exitX=0;exitY=0.5;exitDx=0;exitDy=0;entryX=1;entryY=0.5;entryDx=0;entryDy=0;" parent="1" source="1A0tMCghKB87Aucakv52-66" target="6NfL-HVDj0801IJ6WpxN-29" edge="1">
          <mxGeometry relative="1" as="geometry" />
        </mxCell>
        <mxCell id="1A0tMCghKB87Aucakv52-68" style="edgeStyle=orthogonalEdgeStyle;rounded=0;orthogonalLoop=1;jettySize=auto;html=1;exitX=0;exitY=0.5;exitDx=0;exitDy=0;entryX=1;entryY=0.5;entryDx=0;entryDy=0;" parent="1" source="1A0tMCghKB87Aucakv52-66" target="6NfL-HVDj0801IJ6WpxN-30" edge="1">
          <mxGeometry relative="1" as="geometry" />
        </mxCell>
        <mxCell id="1A0tMCghKB87Aucakv52-69" style="edgeStyle=orthogonalEdgeStyle;rounded=0;orthogonalLoop=1;jettySize=auto;html=1;exitX=0;exitY=0.5;exitDx=0;exitDy=0;entryX=1;entryY=0.5;entryDx=0;entryDy=0;" parent="1" source="1A0tMCghKB87Aucakv52-66" target="6NfL-HVDj0801IJ6WpxN-31" edge="1">
          <mxGeometry relative="1" as="geometry" />
        </mxCell>
        <mxCell id="1A0tMCghKB87Aucakv52-70" style="edgeStyle=orthogonalEdgeStyle;rounded=0;orthogonalLoop=1;jettySize=auto;html=1;exitX=0;exitY=0.5;exitDx=0;exitDy=0;entryX=1;entryY=0.5;entryDx=0;entryDy=0;" parent="1" source="1A0tMCghKB87Aucakv52-66" target="6NfL-HVDj0801IJ6WpxN-32" edge="1">
          <mxGeometry relative="1" as="geometry" />
        </mxCell>
        <mxCell id="1A0tMCghKB87Aucakv52-71" style="edgeStyle=orthogonalEdgeStyle;rounded=0;orthogonalLoop=1;jettySize=auto;html=1;exitX=0;exitY=0.5;exitDx=0;exitDy=0;entryX=1;entryY=0.5;entryDx=0;entryDy=0;" parent="1" source="1A0tMCghKB87Aucakv52-66" target="6NfL-HVDj0801IJ6WpxN-34" edge="1">
          <mxGeometry relative="1" as="geometry" />
        </mxCell>
        <mxCell id="1A0tMCghKB87Aucakv52-72" style="edgeStyle=orthogonalEdgeStyle;rounded=0;orthogonalLoop=1;jettySize=auto;html=1;exitX=0;exitY=0.5;exitDx=0;exitDy=0;entryX=1;entryY=0.5;entryDx=0;entryDy=0;" parent="1" source="1A0tMCghKB87Aucakv52-66" target="6NfL-HVDj0801IJ6WpxN-35" edge="1">
          <mxGeometry relative="1" as="geometry" />
        </mxCell>
        <mxCell id="1A0tMCghKB87Aucakv52-66" value="Панель выбора вида транспорта для режима Свой" style="rounded=1;whiteSpace=wrap;html=1;arcSize=22;" parent="1" vertex="1">
          <mxGeometry x="-110" y="1050" width="140" height="60" as="geometry" />
        </mxCell>
        <mxCell id="1A0tMCghKB87Aucakv52-79" value="При нажатии выделяется синим" style="rounded=1;whiteSpace=wrap;html=1;arcSize=22;" parent="1" vertex="1">
          <mxGeometry x="-740" y="875" width="120" height="40" as="geometry" />
        </mxCell>
        <mxCell id="1A0tMCghKB87Aucakv52-80" value="При нажатии выделяется синим" style="rounded=1;whiteSpace=wrap;html=1;arcSize=22;" parent="1" vertex="1">
          <mxGeometry x="-740" y="935" width="120" height="40" as="geometry" />
        </mxCell>
        <mxCell id="1A0tMCghKB87Aucakv52-81" value="При нажатии выделяется синим" style="rounded=1;whiteSpace=wrap;html=1;arcSize=22;" parent="1" vertex="1">
          <mxGeometry x="-740" y="990" width="120" height="40" as="geometry" />
        </mxCell>
        <mxCell id="1A0tMCghKB87Aucakv52-106" style="edgeStyle=orthogonalEdgeStyle;rounded=0;orthogonalLoop=1;jettySize=auto;html=1;exitX=1;exitY=0.5;exitDx=0;exitDy=0;entryX=0;entryY=0.5;entryDx=0;entryDy=0;" parent="1" source="1A0tMCghKB87Aucakv52-91" target="1A0tMCghKB87Aucakv52-92" edge="1">
          <mxGeometry relative="1" as="geometry" />
        </mxCell>
        <mxCell id="1A0tMCghKB87Aucakv52-114" style="edgeStyle=orthogonalEdgeStyle;rounded=0;orthogonalLoop=1;jettySize=auto;html=1;exitX=1;exitY=0.5;exitDx=0;exitDy=0;entryX=0;entryY=0.5;entryDx=0;entryDy=0;" parent="1" source="1A0tMCghKB87Aucakv52-91" target="1A0tMCghKB87Aucakv52-107" edge="1">
          <mxGeometry relative="1" as="geometry" />
        </mxCell>
        <mxCell id="1A0tMCghKB87Aucakv52-91" value="Взаимодействие с картой" style="rounded=1;whiteSpace=wrap;html=1;arcSize=22;" parent="1" vertex="1">
          <mxGeometry x="701.5" y="3096.5" width="120" height="40" as="geometry" />
        </mxCell>
        <mxCell id="1A0tMCghKB87Aucakv52-95" style="edgeStyle=orthogonalEdgeStyle;rounded=0;orthogonalLoop=1;jettySize=auto;html=1;exitX=1;exitY=0.5;exitDx=0;exitDy=0;entryX=0;entryY=0.5;entryDx=0;entryDy=0;" parent="1" source="1A0tMCghKB87Aucakv52-92" target="1A0tMCghKB87Aucakv52-93" edge="1">
          <mxGeometry relative="1" as="geometry" />
        </mxCell>
        <mxCell id="1A0tMCghKB87Aucakv52-96" style="edgeStyle=orthogonalEdgeStyle;rounded=0;orthogonalLoop=1;jettySize=auto;html=1;exitX=1;exitY=0.5;exitDx=0;exitDy=0;entryX=0;entryY=0.5;entryDx=0;entryDy=0;" parent="1" source="1A0tMCghKB87Aucakv52-92" target="1A0tMCghKB87Aucakv52-94" edge="1">
          <mxGeometry relative="1" as="geometry" />
        </mxCell>
        <mxCell id="1A0tMCghKB87Aucakv52-92" value="Масташибрование" style="rounded=1;whiteSpace=wrap;html=1;arcSize=22;" parent="1" vertex="1">
          <mxGeometry x="881.5" y="3056.5" width="120" height="40" as="geometry" />
        </mxCell>
        <mxCell id="1A0tMCghKB87Aucakv52-101" style="edgeStyle=orthogonalEdgeStyle;rounded=0;orthogonalLoop=1;jettySize=auto;html=1;exitX=1;exitY=0.5;exitDx=0;exitDy=0;entryX=0;entryY=0.5;entryDx=0;entryDy=0;" parent="1" source="1A0tMCghKB87Aucakv52-93" target="1A0tMCghKB87Aucakv52-100" edge="1">
          <mxGeometry relative="1" as="geometry" />
        </mxCell>
        <mxCell id="1A0tMCghKB87Aucakv52-102" style="edgeStyle=orthogonalEdgeStyle;rounded=0;orthogonalLoop=1;jettySize=auto;html=1;exitX=1;exitY=0.5;exitDx=0;exitDy=0;entryX=0;entryY=0.5;entryDx=0;entryDy=0;" parent="1" source="1A0tMCghKB87Aucakv52-93" target="1A0tMCghKB87Aucakv52-99" edge="1">
          <mxGeometry relative="1" as="geometry" />
        </mxCell>
        <mxCell id="1A0tMCghKB87Aucakv52-93" value="Уменьшение масштаба" style="rounded=1;whiteSpace=wrap;html=1;arcSize=22;" parent="1" vertex="1">
          <mxGeometry x="1041.5" y="3005" width="120" height="40" as="geometry" />
        </mxCell>
        <mxCell id="1A0tMCghKB87Aucakv52-103" style="edgeStyle=orthogonalEdgeStyle;rounded=0;orthogonalLoop=1;jettySize=auto;html=1;exitX=1;exitY=0.5;exitDx=0;exitDy=0;entryX=0;entryY=0.5;entryDx=0;entryDy=0;" parent="1" source="1A0tMCghKB87Aucakv52-94" target="1A0tMCghKB87Aucakv52-98" edge="1">
          <mxGeometry relative="1" as="geometry" />
        </mxCell>
        <mxCell id="1A0tMCghKB87Aucakv52-104" style="edgeStyle=orthogonalEdgeStyle;rounded=0;orthogonalLoop=1;jettySize=auto;html=1;exitX=1;exitY=0.5;exitDx=0;exitDy=0;entryX=0;entryY=0.5;entryDx=0;entryDy=0;" parent="1" source="1A0tMCghKB87Aucakv52-94" target="1A0tMCghKB87Aucakv52-97" edge="1">
          <mxGeometry relative="1" as="geometry" />
        </mxCell>
        <mxCell id="1A0tMCghKB87Aucakv52-94" value="Увеличение масшатаба" style="rounded=1;whiteSpace=wrap;html=1;arcSize=22;" parent="1" vertex="1">
          <mxGeometry x="1041.5" y="3128" width="120" height="40" as="geometry" />
        </mxCell>
        <mxCell id="1A0tMCghKB87Aucakv52-97" value="Потянуть ползунок изменения масштаба вниз" style="rounded=1;whiteSpace=wrap;html=1;arcSize=22;" parent="1" vertex="1">
          <mxGeometry x="1201.5" y="3158" width="120" height="48.5" as="geometry" />
        </mxCell>
        <mxCell id="1A0tMCghKB87Aucakv52-98" value="Кнопка -" style="rounded=1;whiteSpace=wrap;html=1;arcSize=22;" parent="1" vertex="1">
          <mxGeometry x="1201.5" y="3088" width="120" height="40" as="geometry" />
        </mxCell>
        <mxCell id="1A0tMCghKB87Aucakv52-99" value="Потянуть ползунок изменения масштаба вверх" style="rounded=1;whiteSpace=wrap;html=1;arcSize=22;" parent="1" vertex="1">
          <mxGeometry x="1201.5" y="3026.5" width="120" height="50" as="geometry" />
        </mxCell>
        <mxCell id="1A0tMCghKB87Aucakv52-100" value="Кнопка +" style="rounded=1;whiteSpace=wrap;html=1;arcSize=22;" parent="1" vertex="1">
          <mxGeometry x="1201.5" y="2965" width="120" height="40" as="geometry" />
        </mxCell>
        <mxCell id="1A0tMCghKB87Aucakv52-111" style="edgeStyle=orthogonalEdgeStyle;rounded=0;orthogonalLoop=1;jettySize=auto;html=1;exitX=1;exitY=0.5;exitDx=0;exitDy=0;entryX=0;entryY=0.5;entryDx=0;entryDy=0;" parent="1" source="1A0tMCghKB87Aucakv52-107" target="1A0tMCghKB87Aucakv52-109" edge="1">
          <mxGeometry relative="1" as="geometry" />
        </mxCell>
        <mxCell id="1A0tMCghKB87Aucakv52-113" style="edgeStyle=orthogonalEdgeStyle;rounded=0;orthogonalLoop=1;jettySize=auto;html=1;exitX=1;exitY=0.5;exitDx=0;exitDy=0;entryX=0;entryY=0.5;entryDx=0;entryDy=0;" parent="1" source="1A0tMCghKB87Aucakv52-107" target="1A0tMCghKB87Aucakv52-108" edge="1">
          <mxGeometry relative="1" as="geometry" />
        </mxCell>
        <mxCell id="1A0tMCghKB87Aucakv52-107" value="Перемешение по карте" style="rounded=1;whiteSpace=wrap;html=1;arcSize=22;" parent="1" vertex="1">
          <mxGeometry x="881.5" y="3285" width="120" height="40" as="geometry" />
        </mxCell>
        <mxCell id="1A0tMCghKB87Aucakv52-108" value="С помощью зажатия и передвижения ЛКМ" style="rounded=1;whiteSpace=wrap;html=1;arcSize=22;" parent="1" vertex="1">
          <mxGeometry x="1041.5" y="3235" width="120" height="40" as="geometry" />
        </mxCell>
        <mxCell id="1A0tMCghKB87Aucakv52-109" value="С помощью ввода адреса*" style="rounded=1;whiteSpace=wrap;html=1;arcSize=22;" parent="1" vertex="1">
          <mxGeometry x="1041.5" y="3345" width="120" height="40" as="geometry" />
        </mxCell>
        <mxCell id="1A0tMCghKB87Aucakv52-112" value="*По аналогии с Яндекс.Карты, где при вводе адреса тебя автоматически переносит на него" style="text;html=1;align=center;verticalAlign=middle;resizable=0;points=[];autosize=1;strokeColor=none;fillColor=none;" parent="1" vertex="1">
          <mxGeometry x="1260" y="3325" width="540" height="30" as="geometry" />
        </mxCell>
        <mxCell id="3H2eXbhgfERCYtj9rPeK-1" value="&lt;font style=&quot;font-size: 10px;&quot;&gt;При нажатии выделяется темно-серым&lt;/font&gt;" style="rounded=1;whiteSpace=wrap;html=1;arcSize=22;" parent="1" vertex="1">
          <mxGeometry x="-770" y="1137" width="120" height="40" as="geometry" />
        </mxCell>
        <mxCell id="3H2eXbhgfERCYtj9rPeK-18" value="Расчет стоимости для каршеринга, такси: время в пути * стоимость за минуту&amp;nbsp;" style="rounded=1;whiteSpace=wrap;html=1;arcSize=22;" parent="1" vertex="1">
          <mxGeometry x="1110" y="2607" width="167.75" height="80" as="geometry" />
        </mxCell>
        <mxCell id="3H2eXbhgfERCYtj9rPeK-19" value="Рачет стоимости для собственного авто, шеринга велосипедов, шеринга самокатов, пешком: расстояние между точками * стоимость за км" style="rounded=1;whiteSpace=wrap;html=1;arcSize=22;" parent="1" vertex="1">
          <mxGeometry x="1110" y="2790" width="170" height="133" as="geometry" />
        </mxCell>
        <mxCell id="r7nQnhasPK6SVWUn0nqD-2" value="&lt;font style=&quot;font-size: 10px;&quot;&gt;При нажатии выделяется темно-серым&lt;/font&gt;" style="rounded=1;whiteSpace=wrap;html=1;arcSize=22;" parent="1" vertex="1">
          <mxGeometry x="-770" y="1085" width="120" height="40" as="geometry" />
        </mxCell>
        <mxCell id="r7nQnhasPK6SVWUn0nqD-3" value="&lt;font style=&quot;font-size: 10px;&quot;&gt;При нажатии выделяется темно-серым&lt;/font&gt;" style="rounded=1;whiteSpace=wrap;html=1;arcSize=22;" parent="1" vertex="1">
          <mxGeometry x="-770" y="1185" width="120" height="40" as="geometry" />
        </mxCell>
        <mxCell id="r7nQnhasPK6SVWUn0nqD-4" value="&lt;font style=&quot;font-size: 10px;&quot;&gt;При нажатии выделяется темно-серым&lt;/font&gt;" style="rounded=1;whiteSpace=wrap;html=1;arcSize=22;" parent="1" vertex="1">
          <mxGeometry x="-770" y="1240" width="120" height="40" as="geometry" />
        </mxCell>
        <mxCell id="r7nQnhasPK6SVWUn0nqD-5" value="&lt;font style=&quot;font-size: 10px;&quot;&gt;При нажатии выделяется темно-серым&lt;/font&gt;" style="rounded=1;whiteSpace=wrap;html=1;arcSize=22;" parent="1" vertex="1">
          <mxGeometry x="-770" y="1300" width="120" height="40" as="geometry" />
        </mxCell>
        <mxCell id="r7nQnhasPK6SVWUn0nqD-6" value="&lt;font style=&quot;font-size: 10px;&quot;&gt;При нажатии выделяется темно-серым&lt;/font&gt;" style="rounded=1;whiteSpace=wrap;html=1;arcSize=22;" parent="1" vertex="1">
          <mxGeometry x="-770" y="1360" width="120" height="40" as="geometry" />
        </mxCell>
        <mxCell id="h4jfoluIQZgbmN_4Dib1-3" style="edgeStyle=orthogonalEdgeStyle;rounded=0;orthogonalLoop=1;jettySize=auto;html=1;exitX=1;exitY=0.5;exitDx=0;exitDy=0;entryX=0;entryY=0.5;entryDx=0;entryDy=0;" parent="1" source="h4jfoluIQZgbmN_4Dib1-1" target="3H2eXbhgfERCYtj9rPeK-18" edge="1">
          <mxGeometry relative="1" as="geometry" />
        </mxCell>
        <mxCell id="h4jfoluIQZgbmN_4Dib1-4" style="edgeStyle=orthogonalEdgeStyle;rounded=0;orthogonalLoop=1;jettySize=auto;html=1;exitX=1;exitY=0.5;exitDx=0;exitDy=0;entryX=0;entryY=0.5;entryDx=0;entryDy=0;" parent="1" source="h4jfoluIQZgbmN_4Dib1-1" target="3H2eXbhgfERCYtj9rPeK-19" edge="1">
          <mxGeometry relative="1" as="geometry" />
        </mxCell>
        <mxCell id="h4jfoluIQZgbmN_4Dib1-1" value="Расчёт стоимости" style="rounded=1;whiteSpace=wrap;html=1;arcSize=22;" parent="1" vertex="1">
          <mxGeometry x="905" y="2710" width="120" height="40" as="geometry" />
        </mxCell>
      </root>
    </mxGraphModel>
  </diagram>
</mxfile>
